<svg id="Layer_1" enable-background="new 0 0 66 66" height="512" viewBox="0 0 66 66" width="512" xmlns="http://www.w3.org/2000/svg"><g><path d="m55 17.1c.2-1 .3-1.9.3-2.9.1-7.3-5.8-13.2-13.1-13.2-5.9 0-11 3.9-12.6 9.4-2-1.9-4.6-3-7.4-3-5.5 0-10 4.2-10.5 9.6-6 .3-10.7 5.2-10.7 11.2 0 4.5 2.7 8.6 6.9 10.3v3.2c0 .9.4 1.7.9 2.3-.6.6-.9 1.4-.9 2.3v5.5c0 .9.4 1.7.9 2.3-.6.6-.9 1.4-.9 2.3v5.5c0 1.8 1.5 3.3 3.3 3.3h26.3c1.8 0 3.3-1.5 3.3-3.3v-5.5c0-.9-.4-1.7-.9-2.3.6-.6.9-1.4.9-2.3v-5.5c0-.9-.4-1.7-.9-2.3.6-.6.9-1.4.9-2.3v-2.3h13c6.2 0 11.2-5 11.2-11.2 0-5.8-4.3-10.5-10-11.1zm-16.2 44.6c0 .7-.6 1.3-1.3 1.3h-26.3c-.7 0-1.3-.6-1.3-1.3v-5.5c0-.7.6-1.3 1.3-1.3h26.3c.7 0 1.3.6 1.3 1.3zm0-10c0 .7-.6 1.3-1.3 1.3h-26.3c-.7 0-1.3-.6-1.3-1.3v-5.5c0-.7.6-1.3 1.3-1.3h26.3c.7 0 1.3.6 1.3 1.3zm0-10c0 .7-.6 1.3-1.3 1.3h-26.3c-.7 0-1.3-.6-1.3-1.3v-5.4c0-.7.6-1.3 1.3-1.3h26.3c.7 0 1.3.6 1.3 1.3zm15-4.4h-13v-1.1c0-1.8-1.5-3.3-3.3-3.3h-26.3c-1.8 0-3.3 1.5-3.3 3.3-3-1.6-4.9-4.7-4.9-8.1 0-5.1 4.1-9.2 9.2-9.2 1.2 0 2.4.2 3.6.7.5.2 1.1 0 1.3-.5s0-1.1-.5-1.3c-.9-.4-1.9-.6-2.9-.8.4-4.3 4.1-7.7 8.5-7.7 2.8 0 5.3 1.3 6.9 3.5v.2c.1.5.5.9 1 .9.5 0 .9-.4 1-.9.6-5.7 5.3-10 11.1-10 6.1 0 11.1 5 11.1 11.2 0 1.2-.2 2.4-.6 3.5-.1.3 0 .6.2.9s.5.4.8.4c5.1 0 9.2 4.1 9.2 9.2.1 5-4 9.1-9.1 9.1z"/><path d="m32.2 22.2-.5 8.1c0 .3-.1.5-.3.7s-.4.2-.7.2h-.1l-8.1-.5c-.4 0-.8-.3-.9-.7s0-.8.3-1.1l1.8-1.6c-1.1-3.8 0-7.9 3-10.6.7-.6 1.5-1.1 2.3-1.6.4-.2.9-.1 1.2.2s.3.8.1 1.2c-1.1 1.8-1.5 3.9-1.2 5.9l1.3-1.2c.3-.3.7-.3 1.1-.1.6.3.8.7.7 1.1z"/><path d="m44 17.3-1.8 1.6c1.1 3.8 0 7.9-3 10.6-.7.6-1.5 1.2-2.3 1.6-.1.1-.3.1-.4.1-.3 0-.5-.1-.8-.3-.3-.3-.3-.8-.1-1.2 1.1-1.7 1.5-3.8 1.2-5.9l-1.4 1.2c-.3.3-.7.3-1.1.1s-.6-.5-.6-1l.5-8.1c0-.3.1-.5.3-.7s.5-.3.7-.2l8.1.5c.4 0 .8.3.9.7.2.3.1.8-.2 1z"/><path d="m27.9 36.2c-.6 0-1 .4-1 1v3.5c0 .6.4 1 1 1s1-.4 1-1v-3.5c0-.5-.5-1-1-1z"/><path d="m24.3 36.2c-.6 0-1 .4-1 1v3.5c0 .6.4 1 1 1s1-.4 1-1v-3.5c0-.5-.4-1-1-1z"/><path d="m20.8 36.2c-.6 0-1 .4-1 1v3.5c0 .6.4 1 1 1s1-.4 1-1v-3.5c0-.5-.5-1-1-1z"/><path d="m37.2 39c0 1.5-1.2 2.8-2.7 2.8s-2.8-1.2-2.8-2.8c0-1.5 1.2-2.8 2.8-2.8 1.5 0 2.7 1.2 2.7 2.8z"/><path d="m17.2 38.5v.9c0 1.3-1 2.3-2.3 2.3h-1.1c-1.3 0-2.3-1-2.3-2.3v-.9c0-1.3 1-2.3 2.3-2.3h1.1c1.3 0 2.3 1 2.3 2.3z"/><path d="m27.9 51.7c.6 0 1-.4 1-1v-3.5c0-.6-.4-1-1-1s-1 .4-1 1v3.5c0 .6.4 1 1 1z"/><path d="m24.3 51.7c.6 0 1-.4 1-1v-3.5c0-.6-.4-1-1-1s-1 .4-1 1v3.5c0 .6.5 1 1 1z"/><path d="m20.8 51.7c.6 0 1-.4 1-1v-3.5c0-.6-.4-1-1-1s-1 .4-1 1v3.5c0 .6.4 1 1 1z"/><path d="m37.2 49c0 1.5-1.2 2.8-2.7 2.8s-2.8-1.2-2.8-2.8c0-1.5 1.2-2.8 2.8-2.8 1.5 0 2.7 1.3 2.7 2.8z"/><path d="m17.2 48.5v.9c0 1.3-1 2.3-2.3 2.3h-1.1c-1.3 0-2.3-1-2.3-2.3v-.9c0-1.3 1-2.3 2.3-2.3h1.1c1.3 0 2.3 1.1 2.3 2.3z"/><path d="m27.9 56.2c-.6 0-1 .4-1 1v3.5c0 .6.4 1 1 1s1-.4 1-1v-3.5c0-.5-.5-1-1-1z"/><path d="m24.3 56.2c-.6 0-1 .4-1 1v3.5c0 .6.4 1 1 1s1-.4 1-1v-3.5c0-.5-.4-1-1-1z"/><path d="m20.8 56.2c-.6 0-1 .4-1 1v3.5c0 .6.4 1 1 1s1-.4 1-1v-3.5c0-.5-.5-1-1-1z"/><path d="m37.2 59c0 1.5-1.2 2.8-2.7 2.8s-2.8-1.2-2.8-2.8c0-1.5 1.2-2.8 2.8-2.8 1.5 0 2.7 1.3 2.7 2.8z"/><path d="m17.2 58.6v.9c0 1.3-1 2.3-2.3 2.3h-1.1c-1.3 0-2.3-1-2.3-2.3v-.9c0-1.3 1-2.3 2.3-2.3h1.1c1.3-.1 2.3 1 2.3 2.3z"/><path d="m62 52.8c.5-.1.8-.5.8-1-.1-1.5-.5-2.8-1.2-4.1-.2-.4-.8-.6-1.2-.5-.5.2-1 .1-1.1 0-.2-.2-.1-.6.2-1.1.3-.4.2-1-.2-1.3-1.1-1-2.4-1.6-3.8-2.1-.5-.1-1 .1-1.2.6s-.6.8-.8.8-.5-.3-.6-.9c-.1-.5-.6-.8-1.1-.8-1.4.1-2.8.5-4.1 1.2-.5.2-.6.8-.5 1.2.2.5.1 1 0 1.1-.2.2-.6.1-1.1-.2-.4-.3-1-.2-1.3.2-1 1.1-1.7 2.4-2.1 3.8-.1.5.1 1 .6 1.2s.8.6.8.8-.3.5-.9.6c-.5.1-.9.5-.8 1.1.1 1.4.5 2.8 1.2 4.1.2.5.8.6 1.2.5.5-.2 1-.1 1.1 0s.1.6-.2 1.1c-.3.4-.2 1 .2 1.3 1.1 1 2.4 1.7 3.8 2.1.5.1 1-.1 1.2-.6s.6-.8.8-.8.5.3.6.9c.1.5.5.8 1 .8h.1c1.4-.1 2.8-.5 4.1-1.2.4-.2.6-.8.4-1.2-.2-.5-.1-1 0-1.1.2-.1.6-.1 1.1.2.4.3 1 .2 1.3-.2 1-1.1 1.7-2.4 2.1-3.8.2-.5-.1-1-.6-1.2s-.8-.6-.8-.8c.1-.3.5-.6 1-.7zm-2.9.4c-.1.9.3 1.8 1.1 2.4-.2.6-.6 1.2-.9 1.7-1-.4-1.9-.2-2.6.3-.7.6-1 1.5-.9 2.5-.6.2-1.2.4-1.8.5-.4-.9-1.2-1.5-2.1-1.6-.1 0-.2 0-.3 0-.8 0-1.6.4-2.1 1.1-.6-.2-1.2-.5-1.7-.9.4-1 .3-1.9-.3-2.6s-1.5-1-2.5-.9c-.2-.6-.4-1.2-.5-1.8.9-.4 1.5-1.2 1.6-2.1s-.3-1.8-1.1-2.4c.2-.6.6-1.2.9-1.7 1 .3 1.9.2 2.6-.3.7-.6 1-1.5.9-2.5.6-.2 1.2-.4 1.9-.5.4.9 1.2 1.5 2.1 1.6s1.8-.3 2.4-1.1c.6.2 1.2.5 1.7.9-.3 1-.2 1.9.3 2.6.6.7 1.5 1 2.5.9.2.6.4 1.2.5 1.8-1 .4-1.6 1.2-1.7 2.1z"/><path d="m57.4 53c-.3 2.4-2.3 4.2-4.7 4.2-.2 0-.4 0-.5 0-2.6-.3-4.5-2.6-4.2-5.2.1-1.3.8-2.4 1.8-3.2s2.2-1.2 3.5-1c2.5.2 4.3 2.6 4.1 5.2z"/></g></svg>