<svg clip-rule="evenodd" fill-rule="evenodd" height="512" image-rendering="optimizeQuality" shape-rendering="geometricPrecision" text-rendering="geometricPrecision" viewBox="0 0 512 512" width="512" xmlns="http://www.w3.org/2000/svg"><g id="Layer_x0020_1"><path d="m7 262v-241c0-11 10-21 21-21h182c13 0 18 11 23 19 0 2 1 3 2 4l15 29h205c12 0 22 10 22 21v19h-412c-19 0-32 15-35 33z"/><path d="m282 455h-52c-3 0-6-3-6-6v-61c0-3 3-6 6-6h52c3 0 6 3 6 6v61c0 3-3 6-6 6z"/><path d="m331 512h-150c-3 0-6-3-6-6v-57c0-3 3-6 6-6h150c3 0 6 3 6 6v57c0 3-3 6-6 6z"/><path d="m408 500h-77c-4 0-6-3-6-6v-33c0-4 2-6 6-6h77c13 0 23 10 23 22 0 13-10 23-23 23z"/><path d="m181 500h-77c-13 0-23-10-23-23 0-12 10-22 23-22h77c4 0 6 2 6 6v33c0 3-2 6-6 6z"/><path d="m447 394h-422c-7 0-14-3-19-8-4-5-5-11-5-16l40-243c3-14 12-23 24-23h422c7 0 14 4 19 9 4 5 5 10 5 16l-40 243c-3 13-12 22-24 22zm-261-104c-10-2-18-12-18-23 0-3 3-6 6-6 4 0 6 3 6 6 0 4 3 8 6 10v-22c-10-3-18-12-18-23s8-21 18-23v-1c0-3 3-6 6-6s6 3 6 6v1c10 2 18 12 18 23 0 3-3 6-6 6s-6-3-6-6c0-5-2-8-6-11v23c10 3 18 12 18 23s-8 21-18 23v1c0 3-3 6-6 6s-6-3-6-6zm248 61c-3 0-6-3-6-6v-191c0-3 3-6 6-6 4 0 6 3 6 6v191c0 3-2 6-6 6zm-34 0c-3 0-6-3-6-6v-191c0-3 3-6 6-6s6 3 6 6v191c0 3-3 6-6 6zm-269-102c0-33 27-61 61-61 81 0 81 123 0 123-34 0-61-28-61-62zm76 121h-30c-6 0-10-5-10-11v-22c-7-2-13-4-19-7l-16 15c-2 2-4 3-7 3s-6-1-7-3l-22-21c-4-4-4-11 0-15l16-15c-3-6-6-13-8-19h-22c-6 0-10-5-10-11v-30c0-5 4-10 10-10h22c2-7 5-13 8-19l-16-15c-4-4-4-11 0-15l21-21c2-2 5-4 8-4s5 2 7 4l16 15c6-3 12-6 19-8v-22c0-5 4-10 10-10h30c6 0 11 5 11 10v22c6 2 12 5 18 8l16-15c2-2 4-4 7-4s6 2 8 4l21 21c4 4 4 11 0 15l-16 15c4 6 6 12 8 19h22c6 0 11 5 11 10v30c0 6-5 11-11 11h-22c-2 6-4 13-8 19l16 15c4 4 4 11 0 15l-21 21c-2 2-5 3-8 3s-5-1-7-3l-16-15c-6 3-12 5-18 7v22c0 6-5 11-11 11zm-28-12h27v-25c0-3 2-5 4-6 9-2 17-5 24-10 2-1 5-1 7 1l18 18 19-19-17-18c-2-2-3-5-1-8 4-7 8-15 10-23 0-3 3-5 5-5h26v-27h-26c-2 0-5-2-5-5-2-8-6-16-10-24-2-2-1-5 1-7l17-18-19-19-18 18c-2 2-5 2-7 1-7-5-15-8-24-10-2-1-4-3-4-6v-25h-27v25c0 3-2 5-5 6-9 2-16 5-24 10-2 1-5 1-7-1l-18-18-19 19 18 18c2 2 2 5 0 7-4 8-7 16-9 24-1 3-3 5-6 5h-25v27h25c3 0 5 2 6 5 2 8 5 16 9 23 2 3 2 6 0 8l-18 18 19 19 18-18c2-2 5-2 7-1 8 5 15 8 24 10 3 1 5 3 5 6zm19-81c4-2 6-6 6-10s-2-8-6-10zm-12-56c-3 3-6 6-6 11 0 4 3 8 6 10z"/></g></svg>