<svg version="1.1" xmlns="http://www.w3.org/2000/svg" style="display: block;" viewBox="0 0 2048 2048" width="512" height="512">
<path transform="translate(0,0)" fill="rgb(0,0,0)" d="M 0 0 L 941.255 0 L 1110.84 0 L 2048 0 L 2048 951.095 L 2048 1095.61 L 2048 2048 L 1097.9 2048 L 939.884 2048 L 0 2048 L 0 1099 L 0 945.054 L 0 0 z M 996.54 512.474 C 972.579 514.517 948.654 516.888 925.055 521.632 A 519.2 519.2 0 0 0 629.59 699.396 A 498.361 498.361 0 0 0 513.126 1068.73 A 510.561 510.561 0 0 0 690.844 1412.77 C 774.97 1483.33 873.228 1525.53 983.079 1534.05 C 1005.22 1535.77 1027.29 1537.24 1049.47 1535.26 A 187.386 187.386 0 0 0 1053.25 1534.89 C 1087.07 1532.6 1119.92 1528.35 1152.85 1519.98 C 1251.8 1494.82 1343.77 1435.7 1410.84 1359.17 A 508.685 508.685 0 0 0 1536.08 989.541 A 520.021 520.021 0 0 0 1357.32 634.94 A 517.852 517.852 0 0 0 996.54 512.474 z M 1751.09 1232.28 C 1745.6 1247.03 1741.13 1262.16 1735.55 1276.87 C 1728.49 1295.44 1719.9 1313.92 1711.39 1331.87 C 1703.27 1349.02 1693.1 1365.07 1684.66 1382.01 A 3917.06 3917.06 0 0 0 1756.81 1455.97 C 1783.13 1482.6 1814.05 1507.85 1831.24 1541.7 C 1841.81 1562.52 1845.95 1587.66 1845.29 1610.85 C 1843.6 1669.96 1805.47 1709.98 1765.61 1748.88 C 1752.57 1761.6 1739.85 1774.7 1726.57 1787.17 C 1688.22 1823.2 1652.41 1845.1 1598.49 1843.3 C 1548.9 1841.64 1515.9 1819.77 1483.25 1784.57 C 1462.05 1761.71 1440.14 1739.65 1418.22 1717.49 C 1407.59 1706.76 1397.36 1694.74 1385.8 1685.07 C 1364.84 1695.9 1344.27 1707.46 1322.93 1717.54 C 1294.19 1731.11 1264.33 1742.32 1234.36 1752.83 C 1235.15 1783.6 1234.49 1814.49 1234.45 1845.27 C 1234.4 1875.34 1237.71 1911.56 1230.29 1940.55 C 1224.22 1964.26 1212.91 1984.06 1196.02 2001.71 C 1176.31 2022.29 1151.51 2036.47 1123.44 2041.97 C 1116.2 2043.39 1103.77 2043.78 1097.9 2048 L 2048 2048 L 2048 1095.61 C 2047.7 1096.11 2047.39 1096.6 2047.11 1097.11 C 2042.41 1105.53 2041.63 1121.87 2038.26 1131.83 C 2023.58 1175.3 1987.69 1212.21 1943.73 1226.68 C 1907.5 1238.62 1854.92 1233.26 1816.55 1233.17 C 1795.08 1233.12 1772.41 1234.68 1751.09 1232.28 z M 0 1099 L 0 2048 L 939.884 2048 C 933.344 2043.83 924.012 2042.94 916.556 2041.01 A 138.871 138.871 0 0 1 855.027 2005.93 C 838.811 1990.22 825.994 1969.72 819.808 1947.96 C 810.002 1913.47 813.817 1873.28 813.845 1837.51 A 6412.4 6412.4 0 0 0 813.19 1751.26 C 784.616 1740.12 756.187 1729.48 728.27 1716.7 C 707.265 1707.09 686.996 1696 666.341 1685.67 C 640.797 1713.02 613.119 1738.7 586.497 1765.01 C 569.975 1781.34 554.878 1799.67 536.356 1813.81 A 148.354 148.354 0 0 1 494.03 1836.68 C 454.588 1849.97 410.562 1845.17 373.744 1826.61 A 191.35 191.35 0 0 1 340.224 1804.7 C 322.131 1789.74 305.975 1771.6 289.474 1754.92 C 269.044 1734.26 247.485 1714.92 230.341 1691.28 C 220.819 1678.16 212.861 1663.5 207.896 1648.03 C 194.36 1605.85 200.648 1557.44 227.368 1521.72 C 238.599 1506.71 253.383 1493.37 266.626 1480.09 C 288.19 1458.47 310.282 1437.45 331.505 1415.48 C 339.681 1407.01 356.148 1393.64 361.07 1384.14 C 360.357 1377.22 341.911 1346.5 337.598 1337.18 C 321.903 1303.27 309.708 1268.3 297.713 1232.98 C 285.304 1232.14 272.308 1233.15 259.827 1233.17 L 180.794 1233.17 C 155.158 1233.24 129.129 1234.44 104.382 1226.53 C 59.4509 1212.18 25.3154 1177.19 9.52962 1133.18 C 6.2374 1124 4.88439 1107.73 0.75233 1100.29 C 0.511039 1099.85 0.250777 1099.43 0 1099 z M 0 0 L 0 945.054 C 4.12782 939.09 5.47606 928.651 7.535 921.52 C 14.7201 896.636 28.0965 874.867 46.4552 856.68 C 92.415 811.151 135.449 817.577 194.208 817.28 A 7066.94 7066.94 0 0 1 297.139 817.021 C 303.774 796.988 309.743 776.728 317.103 756.94 C 329.325 724.081 343.928 692.411 359.359 660.965 A 3655.63 3655.63 0 0 0 248.766 553.569 C 220.794 527.026 204.187 488.228 203.416 449.832 C 202.545 406.473 218.008 366.641 248.164 335.334 C 265.112 317.739 282.604 300.553 299.787 283.178 C 342.393 240.095 378.331 203.693 443.5 202.914 C 516.46 202.042 548.524 243.722 595.205 291.184 C 618.53 314.9 642.365 337.997 666.107 361.286 C 710.543 334.835 763.462 309.181 813.477 295.921 C 812.566 267.309 813.537 238.444 813.4 209.786 C 813.28 184.641 811.528 158.449 813.975 133.466 C 815.247 120.486 817.867 107.823 822.438 95.59 C 836.055 59.1469 866.041 23.7394 903.514 10.6294 C 915.01 6.60768 929.104 5.8303 939.864 0.690578 C 940.331 0.46755 940.791 0.230193 941.255 0 L 0 0 z M 1110.84 0 C 1111.35 0.294769 1111.85 0.598857 1112.36 0.884306 C 1120.92 5.66799 1135.44 7.75668 1145.12 11.5358 C 1183.56 26.5465 1215.26 57.4139 1227.56 97.4003 C 1237.52 129.809 1234.2 167.281 1234.19 200.94 L 1233.87 296.367 C 1285.68 312.02 1337.1 335.622 1384.75 361.183 C 1401.35 343.247 1419.23 326.304 1436.28 308.761 C 1461.24 283.076 1501.25 237.491 1531.58 220.186 C 1551.57 208.784 1574.1 203.142 1597.04 202.358 C 1640.68 200.868 1679.87 218.123 1711.27 247.686 A 3210.4 3210.4 0 0 1 1766.53 301.914 C 1805.42 340.82 1842.73 378.89 1844.56 437.389 C 1845.86 479.136 1833.56 515.93 1804.77 546.582 C 1778.44 574.622 1749.63 600.857 1722.37 628.031 C 1710.65 639.706 1698.61 651.3 1687.96 663.969 C 1700.5 691.384 1715.83 717.286 1727.54 745.197 A 656.951 656.951 0 0 1 1743.39 786.664 C 1746.35 795.387 1748.66 805.048 1752.53 813.374 C 1788.98 815.368 1825.85 813.492 1862.36 813.503 C 1878.65 813.508 1895.47 812.834 1911.66 814.529 C 1950.77 818.622 1985.01 838.432 2010.86 867.492 A 139.929 139.929 0 0 1 2042.4 928.791 C 2044.05 936.013 2044.26 944.667 2048 951.095 L 2048 0 L 1110.84 0 z"/>
<path transform="translate(0,0)" fill="rgb(0,0,0)" d="M 1004.89 590.369 A 215.777 215.777 0 0 1 1008.41 590.162 C 1117.93 584.635 1234.04 628.892 1314.92 701.959 A 439.379 439.379 0 0 1 1458.25 1003.03 A 430.346 430.346 0 0 1 1346.02 1313.93 A 437.665 437.665 0 0 1 1042.66 1458.89 C 1026.04 1459.1 1009.46 1459.39 992.878 1458.05 A 445.377 445.377 0 0 1 744.197 1355.3 C 653.755 1279.67 600.087 1174.73 589.768 1057.61 C 579.251 938.252 619.138 832.285 695.259 741.48 C 759.236 665.162 851.784 615.204 949.053 597.027 C 967.559 593.569 986.162 592.035 1004.89 590.369 z M 872.672 765.598 C 859.38 801.487 847.863 838.094 835.206 874.22 L 761.792 1084.06 A 3891.41 3891.41 0 0 1 725.085 1190.11 C 719.078 1207.2 713.666 1224.86 706.797 1241.62 C 739.958 1239.74 775.391 1240.75 808.614 1241.93 C 813.112 1227.4 818.79 1213.19 823.748 1198.8 C 828.443 1185.17 832.417 1170.3 838.594 1157.33 C 855.74 1154.9 874.306 1156.15 891.628 1156.15 L 988.5 1156.11 C 997.047 1156.11 1005.85 1155.69 1014.34 1156.79 C 1025.74 1183.87 1035.02 1212.11 1043.06 1240.36 C 1079.78 1241.63 1116.63 1240.01 1153.39 1241.11 C 1131.11 1180.02 1110.21 1118.39 1088.43 1057.11 A 7576.9 7576.9 0 0 0 981.044 766.466 A 3860.24 3860.24 0 0 0 912.136 766.52 C 899.232 766.594 885.327 768.085 872.672 765.598 z M 1210.3 931.702 L 1209.73 1114.88 C 1209.95 1156.7 1212.04 1199.65 1209.75 1241.38 C 1239.81 1240.67 1269.92 1242 1299.99 1241.36 C 1300.97 1224.86 1300.34 1208.04 1300.31 1191.51 L 1300.32 1112.58 L 1299.87 995.466 C 1299.83 978.8 1300.53 962.058 1300.13 945.404 C 1300.04 941.725 1299.97 938.004 1298.56 934.567 C 1287.49 929.417 1227.22 932.923 1210.3 931.702 z M 1247.48 764.239 C 1233.94 766.635 1221.81 773.899 1213.65 785.096 A 48.6284 48.6284 0 0 0 1204.83 821.318 C 1207.03 834.733 1215.17 847.459 1226.4 855.118 C 1235.68 861.453 1249.25 864.852 1260.47 862.706 C 1274.4 860.784 1286.23 854.559 1294.97 843.236 C 1303.44 832.267 1306.29 818.427 1304.05 804.869 A 48.1852 48.1852 0 0 0 1284.24 773.35 C 1273.34 765.599 1260.6 762.977 1247.48 764.239 z"/>
<path transform="translate(0,0)" fill="rgb(0,0,0)" d="M 927.272 898.228 C 928.008 898.711 928.973 898.959 929.481 899.679 C 932.944 904.585 947.276 949.259 950.429 958.682 L 985.967 1064.01 C 967.226 1064.97 948.427 1065.15 929.667 1065.56 A 539.715 539.715 0 0 1 869.174 1064.4 C 875.636 1051.93 879.203 1036.95 883.746 1023.66 A 6223.11 6223.11 0 0 0 906.379 956.859 C 912.873 937.239 918.964 917.164 927.272 898.228 z"/>
</svg>