<svg version="1.1" xmlns="http://www.w3.org/2000/svg" style="display: block;" viewBox="0 0 2048 2048" width="512" height="512">
<path transform="translate(0,0)" fill="rgb(0,0,0)" d="M 0 0 L 978.616 0 L 1072.01 0 L 2048 0 L 2048 1023.17 L 2048 1085.91 L 2048 2048 L 1311.95 2048 L 737.062 2048 L 0 2048 L 0 1066.06 L 0 1011.2 L 0 0 z M 0 1066.06 L 0 2048 L 737.062 2048 L 1311.95 2048 L 2048 2048 L 2048 1085.91 C 2045.61 1089.73 2045.3 1094.91 2044.87 1099.31 C 2042.33 1124.72 2038.15 1148.62 2031.41 1173.26 C 2023.21 1203.24 2009.7 1233.95 1994.1 1260.8 C 1934.01 1364.22 1843.1 1422.77 1729.27 1453.03 C 1728.81 1442.05 1729.12 1431.1 1729.35 1420.13 C 1697.04 1419.91 1664.04 1421.67 1631.82 1419.89 C 1632.66 1450.6 1631.55 1481.39 1632.17 1512.12 C 1615.45 1511.37 1598.48 1511.93 1581.73 1511.93 L 1485.66 1511.94 L 1192.7 1511.97 L 715.429 1511.95 L 416.009 1512.32 C 417.215 1480.1 416.249 1447.53 416.26 1415.27 C 403.186 1415.56 323.598 1413.18 319.19 1414.92 C 317.621 1425.98 317.962 1438.29 318.467 1449.45 A 1728.97 1728.97 0 0 1 285.771 1438.67 C 249.523 1426.1 211.693 1409.16 179.56 1388.11 C 97.3111 1334.26 41.7811 1248.45 15.8682 1154.49 C 11.9338 1140.23 8.98231 1125.16 6.58668 1110.57 C 4.91561 1100.38 4.97025 1074.92 0.754224 1067.31 C 0.518643 1066.88 0.251408 1066.48 0 1066.06 z M 0 0 L 0 1011.2 C 5.98077 999.664 5.50678 981.021 7.3774 968.098 C 8.45378 960.661 10.0512 953.365 11.8169 946.068 C 34.8732 850.786 81.0047 770.467 158.342 709.02 C 190.528 683.446 227.083 664.039 264.322 646.958 C 270.514 644.118 281.161 640.143 285.647 634.958 C 292.743 626.757 288.866 589.984 290.186 577.729 A 288.237 288.237 0 0 1 297.577 536.872 A 224.167 224.167 0 0 1 341.427 452.279 C 379.74 406.391 429.805 388.893 487.508 383.536 C 497.67 363.248 505.064 341.636 515.502 321.31 A 591.869 591.869 0 0 1 866.952 22.6873 A 520.536 520.536 0 0 1 934.029 7.03317 C 947.894 4.87201 964.635 4.7039 977.794 0.29345 C 978.07 0.20101 978.342 0.0978168 978.616 0 L 0 0 z M 1072.01 0 C 1072.51 0.258578 1072.99 0.53489 1073.49 0.775734 C 1079.56 3.69917 1112.5 7.40544 1121.54 9.14259 C 1146.97 14.0322 1172.41 19.89 1196.92 28.3275 C 1367.68 87.096 1490.25 212.668 1557.48 378.589 C 1561.79 389.23 1567.09 400.787 1569.14 412.076 C 1581.51 411.537 1594.16 410.507 1606.53 411.144 C 1670.23 414.424 1728.02 440.708 1774.73 483.525 C 1832.08 536.107 1869.17 611.335 1872.37 689.493 C 1873.24 710.678 1867.17 739.472 1884.11 755.48 C 1897.42 768.07 1913.66 778.079 1927.4 790.46 A 369.74 369.74 0 0 1 2037.76 967.534 C 2039.29 973.007 2040.86 978.502 2041.78 984.117 C 2043.34 993.628 2042.89 1016.19 2048 1023.17 L 2048 0 L 1072.01 0 z M 958.385 477.67 C 959.257 502.254 958.591 527.042 958.537 551.645 C 958.501 568.218 960.019 586.681 957.158 602.978 C 948.998 609.342 927.21 611.716 916.593 614.885 C 895.505 621.178 874.69 630.253 854.53 639.025 C 838.095 617.521 821.099 596.464 804.455 575.122 C 797.591 566.321 790.186 557.755 783.846 548.572 C 772.392 559.963 758.364 569.406 745.75 579.535 C 725.494 595.799 705.665 612.802 684.971 628.492 C 708.85 660.252 733.384 692.789 755.17 725.999 A 17124.9 17124.9 0 0 1 577.402 726.474 C 536.612 726.488 477.5 722.747 439.491 732.721 C 408.491 740.855 382.375 757.248 360.053 780.012 C 309.06 832.015 320.772 876.338 318.226 940.36 C 350.87 940.024 383.654 939.733 416.296 940.305 C 415.869 910.18 410.169 869.754 433.115 846.4 C 440.634 838.747 452.794 831.128 463.545 829.657 C 484.746 826.757 508.646 828.816 530.11 828.87 L 658.113 829.206 L 1090.25 829.225 L 1437.36 829.257 L 1534.04 829.396 C 1551 829.433 1569.78 828.026 1586.55 830.638 C 1597.34 832.319 1607.92 838.121 1615.57 845.852 C 1632.74 863.216 1631.1 885.195 1631.28 907.62 C 1631.36 918.053 1631.69 928.568 1631.43 938.996 C 1631.42 939.311 1631.41 939.626 1631.4 939.941 L 1729.16 940.135 C 1727.43 872.593 1736.23 823.728 1681.3 771.078 C 1661.81 752.389 1636.7 737.84 1610.38 731.419 C 1579.66 723.925 1545.56 726.683 1514.08 726.648 L 1384.72 726.462 C 1355.9 726.476 1326.74 727.54 1298 725.158 C 1310.97 694.523 1345.27 651.663 1366.08 624.528 C 1343.87 609.285 1322.61 592.74 1301.08 576.569 C 1288.48 567.106 1275.51 558.136 1262.96 548.615 C 1239.21 578.061 1217.8 609.219 1194.49 638.944 C 1161.49 620.89 1125.38 611.895 1088.62 605.524 C 1091.33 563.469 1088.39 520.87 1089.19 478.727 L 1001.2 478.667 C 987.414 478.617 971.922 479.977 958.385 477.67 z M 320.616 1032.33 C 320.043 1033.21 319.289 1034 318.897 1034.98 C 316.692 1040.48 318.074 1078.27 318.055 1086.72 L 317.973 1242.27 C 318.008 1268.09 319.277 1294.5 318.01 1320.24 A 9646.97 9646.97 0 0 1 416.243 1320.27 C 415.957 1287.67 415.808 1254.89 416.499 1222.29 C 447.189 1223.28 478.193 1222.3 508.92 1222.33 L 710.748 1222.17 L 1344.92 1222.21 L 1536.3 1222.13 C 1567.99 1222.04 1599.81 1220.89 1631.47 1221.54 L 1631.62 1286.77 C 1631.67 1299.53 1632.32 1312.42 1631.28 1325.15 C 1659.54 1324.56 1687.99 1324.86 1716.25 1325.29 L 1728.76 1325.33 C 1727.64 1312.17 1728.27 1298.71 1728.3 1285.49 L 1728.41 1218.23 C 1728.47 1157.07 1727.48 1095.72 1728.93 1034.59 L 1669.14 1034.77 C 1657.01 1034.83 1644.1 1035.83 1632.12 1033.9 C 1631.99 1061.28 1630.41 1089.47 1632.01 1116.75 A 31164.8 31164.8 0 0 0 1293.49 1116.62 L 898.022 1116.71 L 558 1116.75 L 468.531 1116.58 C 451.133 1116.46 433.571 1115.72 416.2 1116.42 L 416.222 1033.17 C 393.813 1031.26 370.646 1032.62 348.154 1032.79 C 339.087 1032.86 329.621 1033.44 320.616 1032.33 z M 626.467 1315.34 C 612.601 1317.57 600.685 1325.2 592.454 1336.56 C 584.411 1347.67 580.655 1362.12 582.72 1375.73 C 584.811 1389.53 592.926 1401.95 604.205 1410.03 C 615.124 1417.85 629.894 1421.61 643.231 1419.19 C 658.588 1415.89 671.524 1408.53 680.443 1395.27 A 50.0628 50.0628 0 0 0 687.767 1357.71 C 685.118 1344.3 676.686 1331.34 665.301 1323.72 C 653.468 1315.8 640.255 1314.46 626.467 1315.34 z M 964.201 1315.27 C 949.783 1318.66 936.705 1325.68 928.581 1338.57 C 920.959 1350.65 918.596 1366.74 922.224 1380.5 C 925.774 1393.96 934.456 1405.97 946.655 1412.86 C 957.13 1418.77 969.496 1420.74 981.361 1419.32 C 996.746 1415.88 1009.29 1409.63 1018 1395.77 A 53.4882 53.4882 0 0 0 1024.14 1354 A 53.7733 53.7733 0 0 0 999.333 1321.2 C 987.971 1314.66 976.918 1314.12 964.201 1315.27 z M 795.181 1315.27 C 779.748 1319.12 767.868 1326.17 759.556 1340.29 A 54.6339 54.6339 0 0 0 754.279 1382.97 A 50.294 50.294 0 0 0 779.956 1413.62 C 790.224 1418.72 802.911 1420.45 814.245 1418.77 C 828.383 1416.03 840.489 1409.18 848.699 1397.05 C 856.945 1384.87 859.548 1370.28 856.264 1355.96 C 853.022 1341.82 843.896 1328.67 831.267 1321.38 C 819.685 1314.69 808.043 1314.3 795.181 1315.27 z M 628.368 920.365 C 612.96 922.835 601.054 927.939 591.349 940.845 A 51.5325 51.5325 0 0 0 581.527 979.229 A 51.2287 51.2287 0 0 0 602.635 1013.27 C 612.844 1020.51 624.616 1023.21 636.982 1022.56 C 651.582 1021.15 663.705 1016.09 673.107 1004.31 A 51.4332 51.4332 0 0 0 684.116 965.797 C 682.43 952.388 675.204 938.926 664.504 930.602 C 654.472 922.797 640.958 919.464 628.368 920.365 z M 800.627 921.317 C 786.953 922.903 775.653 927.899 766.719 938.822 A 51.7659 51.7659 0 0 0 755.468 977.002 A 52.3393 52.3393 0 0 0 775.45 1012.54 C 786.335 1021.06 799.685 1023.82 813.248 1022.8 C 827.897 1020.58 839.413 1014.53 848.332 1002.37 A 51.212 51.212 0 0 0 857.593 962.994 A 51.0585 51.0585 0 0 0 836.043 929.189 C 825.898 922.372 812.721 919.705 800.627 921.317 z M 962.881 922.595 C 949.675 925.518 938.438 933.89 931.156 945.253 C 923.807 956.721 921.633 971.518 924.676 984.746 C 927.704 997.912 937.025 1009.63 948.589 1016.44 C 958.689 1022.39 971.638 1024.78 983.249 1022.85 C 997.791 1019.87 1010.74 1011.8 1018.99 999.237 C 1026.36 987.992 1028.24 973.843 1025.35 960.803 A 52.1781 52.1781 0 0 0 1002.33 928.334 C 990.017 920.71 976.664 921.166 962.881 922.595 z"/>
<path transform="translate(0,0)" fill="rgb(0,0,0)" d="M 416.588 1619.95 C 445.433 1618.65 474.356 1619.35 503.221 1619.5 L 601.392 1619.34 L 1005.56 1619.97 L 1407.9 1620.02 L 1546.19 1620.15 C 1574.79 1620.17 1603.48 1619.69 1632.06 1620.39 L 1631.91 1705.77 C 1631.9 1729.77 1634.43 1757.14 1628.21 1780.43 C 1625.54 1790.43 1620.42 1798.83 1613.01 1806.01 C 1604.32 1814.44 1592.79 1820.89 1580.82 1822.93 C 1567.03 1825.27 1552.34 1824.34 1538.38 1824.32 A 3974.9 3974.9 0 0 0 1477.47 1824.45 C 1412.47 1825.32 1347.59 1824.39 1282.6 1824.25 C 1240.49 1824.16 1198.08 1825.33 1156 1824.22 C 1154.34 1824.18 1152.71 1824.05 1151.05 1823.9 C 1152.31 1838.65 1151.86 1853.69 1151.88 1868.49 A 2690.06 2690.06 0 0 1 1150.79 1953.69 C 1173.99 1952.43 1197.48 1953.37 1220.72 1953.33 C 1251.07 1953.29 1281.57 1952.5 1311.9 1953.31 L 1311.95 2048 L 737.062 2048 C 736.123 2016.59 736.543 1984.76 737.177 1953.34 A 6330.86 6330.86 0 0 1 897.895 1953.15 C 896.173 1934.82 897.61 1915.5 897.559 1897.06 C 897.494 1873.33 896.047 1849.05 897.742 1825.42 L 896.224 1825.29 C 882.437 1824.15 868.376 1824.66 854.538 1824.61 L 780.432 1824.5 L 569.116 1824.26 L 507.226 1824.54 C 493.843 1824.61 479.261 1825.82 466.109 1823.2 C 453.494 1820.69 441.184 1812.45 432.922 1802.7 C 425.252 1793.66 420.417 1781.61 418.207 1770.05 C 414.068 1748.4 416.152 1723.96 416.166 1701.91 C 416.183 1674.66 415.457 1647.17 416.588 1619.95 z"/>
</svg>