<svg version="1.1" xmlns="http://www.w3.org/2000/svg" style="display: block;" viewBox="0 0 2048 2048" width="512" height="512">
<path transform="translate(0,0)" fill="rgb(0,0,0)" d="M 1007.79 1294.33 C 1056.93 1289.94 1110.9 1306.36 1150.45 1335.42 A 154.635 154.635 0 0 1 1210.96 1437.31 C 1219.61 1495.03 1194.13 1568.18 1159.47 1614.29 C 1132.08 1650.7 1091.36 1684.06 1045.1 1690.72 C 1005.97 1695.76 969.976 1685.78 938.234 1662.48 C 886.109 1624.23 851.341 1560.41 841.559 1496.95 C 833.837 1446.85 841.004 1402.1 871.756 1360.52 C 903.462 1317.64 957.393 1301.59 1007.79 1294.33 z"/>
<path transform="translate(0,0)" fill="rgb(0,0,0)" d="M 1001.26 0 L 1049.96 0 C 1056.92 4.57486 1087.18 9.75259 1098.21 14.0833 C 1141.53 31.0937 1179.46 68.3535 1197.75 111.086 C 1218.11 158.645 1211.87 221.78 1192.78 268.761 C 1171.29 321.658 1127.31 372.378 1074.03 394.463 A 129.063 129.063 0 0 1 974.219 393.087 C 922.318 371.029 878.387 320.898 857.811 269.104 C 837.821 218.788 833.532 149.972 855.77 99.6177 C 873.967 58.4115 917.813 25.3788 959.657 11.1264 C 972.484 6.75758 987.151 5.71728 999.498 0.735879 C 1000.09 0.498191 1000.67 0.245293 1001.26 0 z"/>
<path transform="translate(0,0)" fill="rgb(0,0,0)" d="M 295.959 626.383 C 341.381 624.058 388.23 640.426 424.599 667.344 C 460.731 694.087 487.044 731.938 493.467 776.868 C 501.794 835.126 476.044 904.379 441.065 950.333 C 411.148 989.637 369.913 1019.95 320.247 1026.74 L 318.842 1026.89 C 277.707 1031.15 240.066 1019.56 208.105 993.114 A 247.519 247.519 0 0 1 120.628 825.3 C 115.956 775.543 124.629 728.957 157.43 689.832 C 192.715 647.745 242.836 631.286 295.959 626.383 z"/>
<path transform="translate(0,0)" fill="rgb(0,0,0)" d="M 773.193 152.949 C 773.456 152.932 773.72 152.861 773.981 152.899 C 775.976 153.192 776.302 153.649 776.735 155.55 C 778.63 163.866 777.539 175.543 777.827 184.252 C 778.183 195.05 779.236 205.679 780.603 216.391 C 787.531 270.673 808.388 317.739 839.327 362.527 C 830.084 367.223 819.485 370.296 809.78 374.004 C 791.527 380.978 773.462 388.159 755.857 396.657 C 639.262 452.942 551.68 524.949 473.652 628.011 C 466.155 622.572 459.197 616.469 451.557 611.146 C 426.552 593.724 398.594 581.573 369.259 573.682 C 332.072 564.666 290.884 563.608 253.673 573.05 C 278.494 524.695 312.205 480.182 347.424 439.022 C 467.393 298.816 600.249 213.518 773.193 152.949 z"/>
<path transform="translate(0,0)" fill="rgb(0,0,0)" d="M 1736.61 627.388 C 1787.02 621.935 1837.56 644.674 1876.49 675.256 C 1908.82 700.651 1931.28 735.161 1936.1 776.385 C 1942.96 835.04 1920.55 910.133 1883.98 955.844 C 1851.1 996.929 1812.24 1025.02 1759.05 1030.73 C 1715.26 1032.29 1676.28 1015.92 1642.8 988.216 C 1593.82 947.686 1563.91 886.244 1558.15 823.365 A 177.94 177.94 0 0 1 1598.37 693.501 C 1633.13 652.081 1683.86 632.222 1736.61 627.388 z"/>
<path transform="translate(0,0)" fill="rgb(0,0,0)" d="M 1272.08 152.407 C 1305.49 160.48 1337.84 174.276 1369.06 188.492 A 958.165 958.165 0 0 1 1703.51 441.155 A 1131.06 1131.06 0 0 1 1769.24 528.405 C 1779.25 543.071 1788.1 558.645 1798.66 572.895 A 311.948 311.948 0 0 0 1686.13 575.195 C 1656.78 582.619 1627.02 594.081 1601.54 610.66 C 1592.52 616.523 1582.78 626.351 1573.25 630.563 C 1569.5 632.226 1564.17 624.009 1562 621.124 C 1539.32 590.977 1517.02 562.585 1490.26 535.794 A 743.86 743.86 0 0 0 1214.37 362.938 C 1244.74 320.301 1265.83 264.701 1271.28 212.768 C 1273.37 192.801 1273.01 172.436 1272.08 152.407 z"/>
<path transform="translate(0,0)" fill="rgb(0,0,0)" d="M 1005.97 822.367 C 1033.79 820.143 1063.5 823.191 1089.86 832.613 C 1149.21 853.823 1190.65 896.295 1217.2 952.566 L 1320.04 953.298 C 1319.5 999.438 1319.16 1046 1320.36 1092.12 C 1286.44 1089.86 1251.92 1092.75 1217.88 1091.59 C 1212.88 1109.19 1201.76 1126.48 1191.01 1141.07 C 1164.38 1177.16 1123.54 1205.64 1080.51 1218.42 C 1068.46 1222 1056.21 1223.86 1043.82 1225.77 A 302.569 302.569 0 0 1 1031.49 1226.54 C 960.336 1228.92 893.698 1192.82 853.054 1135.27 C 849.004 1129.53 844.861 1123.69 841.376 1117.6 C 837.174 1110.25 834.264 1098.66 828.093 1092.92 C 814.497 1090.03 745.745 1091.7 728.359 1092.38 C 729.936 1076.41 728.716 1059.4 728.672 1043.31 L 728.61 953.85 C 762.596 953.943 797.035 954.631 830.965 953.425 C 837.655 934.591 850.124 914.763 862.286 899.066 C 898.39 852.47 948.635 829.441 1005.97 822.367 z"/>
<path transform="translate(0,0)" fill="rgb(0,0,0)" d="M 873.129 406.855 C 882.913 407.438 896.179 422.471 904.385 428.031 C 910.513 432.184 917.283 435.84 923.839 439.305 A 218.904 218.904 0 0 0 977.475 459.285 A 211.133 211.133 0 0 0 1133.92 435.452 C 1147.8 427.173 1159.84 416.439 1173.48 407.993 L 1174.44 407.41 C 1199.34 415.206 1227.68 431.879 1248.24 447.673 C 1280.54 472.491 1305.9 508.046 1311.04 549.201 C 1313.33 567.472 1312.19 586.6 1312.19 605.004 C 1312.19 641.905 1317.45 684.057 1292.85 714.923 C 1278.09 733.453 1256.57 743.889 1233.32 746.644 C 1211.62 748.517 1188.78 747.173 1166.95 747.136 L 1039.85 746.81 L 893.358 747.107 C 868.452 747.145 843.116 748.145 818.274 746.724 C 808.88 746.187 799.661 744.583 790.909 741.037 C 770.662 732.834 753.15 716.358 744.768 696.085 C 741.375 687.88 739.557 679.243 738.604 670.44 C 736.699 652.846 737.837 634.606 737.834 616.906 C 737.831 593.381 736.445 568.883 739.693 545.546 A 128.582 128.582 0 0 1 749.236 511.129 C 772.409 457.179 820.843 427.815 873.129 406.855 z"/>
<path transform="translate(0,0)" fill="rgb(0,0,0)" d="M 828.108 2048 C 827.596 2047.69 827.093 2047.37 826.572 2047.07 C 818.196 2042.35 806.234 2041.63 796.977 2038.66 C 771.768 2030.58 748.378 2010.13 740.412 1984.6 A 92.3856 92.3856 0 0 1 736.677 1965.57 C 735.02 1947.2 736.11 1927.97 736.157 1909.52 C 736.222 1883.85 734.504 1856.9 738.915 1831.54 A 141.969 141.969 0 0 1 753.615 1788.57 C 774.974 1748.08 798.741 1735.3 837.269 1714.72 C 847.365 1709.33 858.337 1701.98 869.259 1698.57 C 872.041 1697.7 874.678 1697.02 877.387 1698.43 C 887.607 1703.78 900.701 1719.29 911.68 1726.73 C 958.133 1758.22 1020.88 1766.47 1074.94 1753.22 C 1102.77 1746.4 1128.37 1733.92 1150.03 1715.02 C 1156.56 1709.32 1162.35 1702.4 1169.06 1697.01 C 1222.68 1717.86 1274.45 1742.72 1299.08 1798.25 A 139.313 139.313 0 0 1 1309.81 1837 C 1313.05 1861.32 1311.9 1886.77 1312 1911.29 C 1312.08 1929.1 1313.09 1947.59 1311.56 1965.29 C 1310.93 1972.57 1309.48 1979.85 1306.86 1986.68 C 1298.35 2008.83 1278.63 2026.85 1257.11 2036.13 C 1246.17 2040.84 1227.31 2042.28 1218.6 2048 L 828.108 2048 z"/>
<path transform="translate(0,0)" fill="rgb(0,0,0)" d="M 1598.63 1382.75 C 1585.69 1383.45 1572.55 1383.17 1559.58 1383.24 C 1530.67 1383.39 1504.28 1384.47 1478.58 1369.05 A 86.6903 86.6903 0 0 1 1438.58 1314.55 C 1433.97 1295.69 1435.18 1275.28 1435.2 1255.98 C 1435.26 1202.87 1433.27 1159.25 1462.67 1111.84 C 1489.2 1069.03 1539.31 1038.49 1587.73 1027.28 C 1596.19 1032.77 1603.84 1040.06 1611.94 1046.16 A 234.125 234.125 0 0 0 1679.9 1081.71 C 1739.42 1100.61 1809.47 1095.97 1861.19 1058.58 C 1867.27 1054.18 1894.61 1030.38 1898.19 1029.07 C 1900.92 1028.07 1904.26 1028.93 1906.91 1029.89 C 1916.33 1033.29 1925.73 1038.12 1934.75 1042.48 C 1981.08 1064.85 2016.74 1096.01 2035.58 1144.95 C 2037.98 1151.18 2040.15 1157.56 2041.69 1164.07 C 2043.31 1170.91 2043.75 1181.89 2047.12 1187.9 C 2047.4 1188.4 2047.71 1188.87 2048 1189.35 L 2048 1301.01 C 2045.23 1304.88 2044.3 1312.09 2043.06 1316.74 C 2037.93 1335.96 2026.38 1351.29 2010.59 1363.32 A 87.1257 87.1257 0 0 1 1976.55 1379.31 C 1951.07 1385.2 1922.54 1382.39 1896.46 1382.51 C 1879.57 1382.59 1861.32 1384.13 1844.6 1381.8 C 1833.93 1401.07 1825.08 1421.5 1815.09 1441.16 C 1805.18 1460.65 1793.71 1479.91 1782.2 1498.51 A 948.497 948.497 0 0 1 1514.22 1778.59 C 1469.42 1808.8 1421.97 1834.2 1373.4 1857.71 C 1373.4 1837.64 1370.92 1817.92 1365.02 1798.71 C 1348.01 1743.38 1307.74 1700.47 1257 1673.86 C 1278.75 1667.55 1302.26 1654.37 1322.33 1643.59 A 743.478 743.478 0 0 0 1598.63 1382.75 z"/>
<path transform="translate(0,0)" fill="rgb(0,0,0)" d="M 0 1185.08 C 0.257708 1184.64 0.527657 1184.21 0.773124 1183.77 C 5.3376 1175.49 9.08261 1151.17 13.8387 1139.45 C 32.5028 1093.46 65.6704 1064.46 109.352 1043.2 C 118.603 1038.7 128.21 1033.78 137.973 1030.54 C 140.278 1029.78 142.551 1029.12 144.931 1028.64 C 158.527 1038.94 171.425 1050.15 185.798 1059.38 A 203.397 203.397 0 0 0 324.341 1089.09 C 361.02 1083.99 396.588 1068.52 428.276 1049.84 C 438.369 1043.89 447.929 1036.94 458.112 1031.18 C 507.483 1040.61 557.242 1073.19 585.307 1114.64 C 616.731 1161.05 615.718 1202.91 615.937 1256.25 C 616.016 1275.5 617.201 1295.79 613.506 1314.76 A 84.7851 84.7851 0 0 1 576.63 1369.65 C 551.538 1386.16 523.267 1383.86 494.544 1383.65 C 480.151 1383.54 465.586 1383.83 451.233 1382.66 C 464.185 1400.17 474.091 1420.09 486.898 1437.93 C 523.448 1488.83 569.934 1535.29 618.96 1574.18 A 699.714 699.714 0 0 0 706.481 1633.25 C 714.623 1637.91 786.771 1674 787.524 1674.99 C 781.903 1682.82 765.263 1689.8 757.017 1696.15 C 704.518 1736.59 674.236 1785.86 671.65 1853.33 C 635.874 1841.37 601.162 1820.07 569.172 1800.42 A 942.466 942.466 0 0 1 218.961 1416.43 C 213.301 1405.08 206.999 1393.65 202.415 1381.83 C 179.464 1381 156.387 1381.56 133.422 1381.64 C 93.9322 1381.79 55.3229 1382.22 26.3383 1350.78 C 13.3352 1336.68 8.03667 1324.41 3.95256 1305.94 C 2.99429 1301.6 2.51256 1296.42 0 1292.7 L 0 1185.08 z"/>
</svg>