<svg version="1.1" xmlns="http://www.w3.org/2000/svg" style="display: block;" viewBox="0 0 2048 2048" width="512" height="512">
<path transform="translate(0,0)" fill="rgb(0,0,0)" d="M 1015.96 308.446 C 1072.9 306.09 1127.73 325.386 1172.95 359.279 C 1238.27 408.237 1267.53 469.029 1278.73 548.124 C 1282.57 549.786 1286.39 551.563 1290.02 553.642 C 1305.46 562.476 1315.31 578.434 1319.82 595.282 C 1327.28 623.127 1325.02 667.095 1309.97 692.408 C 1298.54 711.646 1283.88 720.731 1262.41 726.103 C 1257.87 735.561 1253.64 745.666 1246.96 753.839 C 1239.56 762.891 1231.09 766.897 1219.7 768.253 C 1212.74 796.266 1198.36 823.583 1177.56 843.726 C 1136.14 883.847 1088.96 881.252 1035.31 880.342 C 1012 879.944 989.291 877.315 966.748 871.239 C 892.554 851.244 822.276 793.235 784.119 726.856 C 778.39 724.833 772.485 723.408 766.842 721.1 C 751.09 714.656 740.732 703.006 734.296 687.528 C 723.654 661.939 721.632 610.925 732.443 585.015 C 740.194 566.438 753.256 556.502 771.604 549.066 C 780.367 482.964 792.788 440.364 838.502 389.493 C 884.435 338.38 948.2 312.173 1015.96 308.446 z M 1026.55 764.458 C 1014.32 765.21 1003.49 766.019 994.813 775.907 A 30.6154 30.6154 0 0 0 987.375 798.841 C 988.188 807.689 992.961 815.584 999.929 820.98 A 34.0313 34.0313 0 0 0 1014.87 827.683 C 1025.26 829.591 1037.05 828.303 1047.6 828.288 C 1064.72 828.263 1082.38 829.487 1099.35 826.871 C 1106.56 825.76 1113.42 823.953 1120.25 821.425 C 1142.02 812.141 1156.98 793.695 1165.75 772.003 A 183.773 183.773 0 0 0 1168.25 765.408 C 1150.1 766.159 1131.95 765.175 1113.81 764.701 C 1084.93 763.947 1055.41 763.383 1026.55 764.458 z"/>
<path transform="translate(0,0)" fill="rgb(0,0,0)" d="M 983.206 0 L 1085.87 0 C 1102.38 7.77486 1115.93 3.1751 1131.86 18.3765 C 1136.85 23.1393 1140.51 29.1436 1142.14 35.872 C 1145.31 49.0103 1142.97 100.006 1143.07 117.389 C 1181.85 128.76 1218.51 143.961 1254.35 162.578 C 1261.24 154.347 1269.19 146.709 1276.66 139.001 C 1291.83 123.341 1306.77 105.101 1328.69 99.2357 A 71.7056 71.7056 0 0 1 1382.76 106.365 C 1402.82 118.116 1421.83 142.169 1438.56 158.607 C 1448.56 168.427 1460.41 177.734 1468.79 188.954 A 64.5308 64.5308 0 0 1 1479.77 211.833 C 1490.32 252.909 1463.38 276.352 1435.33 300.15 C 1430.87 303.93 1423.05 309.187 1420.37 314.419 C 1419.57 315.965 1420.31 317.184 1420.88 318.692 C 1424.86 329.401 1433.34 339.963 1439.17 349.852 C 1451.4 370.588 1463.14 394.938 1470.17 417.964 C 1502.91 417.321 1537.97 412.441 1563.99 436.564 C 1579.98 451.393 1586.18 469.876 1586.84 491.277 C 1587.28 505.539 1586.76 519.888 1586.81 534.163 C 1586.9 554.549 1589.52 578.199 1584.72 597.968 C 1582.13 608.639 1577.01 618.398 1569.37 626.321 C 1561.62 634.358 1550.95 641.137 1540.13 644.033 C 1519.33 649.6 1495.04 647.272 1473.63 647.306 A 6173.15 6173.15 0 0 0 1380.74 647.699 C 1381.48 611.251 1383.29 573.422 1380.43 537.082 C 1374.1 456.725 1323.25 367.573 1262.25 315.81 C 1191.12 255.45 1100 220.862 1006.12 228.867 C 991.696 230.096 976.958 231.301 962.719 233.897 A 362.262 362.262 0 0 0 748.846 358.582 C 705.945 409.472 673.783 476.897 666.915 543.611 C 663.222 579.478 665.595 615.092 668.636 650.913 C 625.808 649.858 582.803 651.237 539.956 650.947 C 518.55 650.802 497.781 645.839 482.462 630.005 A 65.1087 65.1087 0 0 1 466.284 600.178 C 461.379 580.254 463.725 556.849 463.757 536.361 C 463.782 520.242 463.231 504.084 463.612 487.971 C 464.064 468.907 469.199 450.484 483.6 437.141 C 508.416 414.147 546.067 418.849 577.057 420.215 C 587.441 383.52 613.528 346.588 632.236 313.434 A 4412.54 4412.54 0 0 0 590.164 272.122 C 576.497 258.642 569.341 244.737 569.37 225.281 C 569.407 200.576 583.079 183.974 599.683 167.38 L 632.759 134.524 C 653.302 114.214 671.377 94.7259 702.409 94.9753 C 731.357 95.2079 747.885 112.702 766.556 132.199 L 795.688 162.591 C 805.498 158.629 814.831 152.876 824.418 148.337 C 847.356 137.478 880.107 124.402 904.932 119.372 A 763.688 763.688 0 0 0 905.275 70.2433 C 905.112 60.251 904.301 49.764 905.243 39.8292 C 905.692 35.0941 906.654 30.5369 908.804 26.2596 C 923.16 -2.30717 958.584 9.16446 982.447 0.302515 C 982.702 0.207643 982.953 0.100838 983.206 0 z"/>
<path transform="translate(0,0)" fill="rgb(0,0,0)" d="M 1009.98 1352.34 C 1047.99 1350.09 1081.93 1359.17 1112.32 1382.72 A 135.698 135.698 0 0 1 1163.34 1472.44 C 1167.79 1508.32 1158.92 1543.33 1136.52 1571.85 C 1111.98 1603.1 1078.66 1621.96 1039.25 1626.64 C 1003.11 1628.78 970.083 1620.16 941.033 1598.08 C 910.601 1574.95 891.403 1544.07 886.509 1506 A 138.415 138.415 0 0 1 915.404 1401.94 C 938.716 1372.11 973.036 1356.7 1009.98 1352.34 z"/>
<path transform="translate(0,0)" fill="rgb(0,0,0)" d="M 370.853 1799.92 C 402.36 1798.2 433.98 1798.61 465.527 1798.58 L 609.245 1798.88 L 997.167 1798.77 L 1468.18 1799.03 C 1536.38 1799.36 1604.83 1797.22 1672.96 1800.28 C 1665.68 1817.52 1660.24 1835.6 1653.48 1853.07 L 1610.19 1963.43 C 1602.81 1982.7 1596.4 2009.33 1584.78 2025.93 C 1577.3 2036.61 1567.46 2041.69 1556.58 2048 L 492.935 2048 C 482.051 2042.25 470.279 2038.98 462.733 2028.4 C 455.153 2017.77 450.484 2002.19 445.661 1990.04 L 424.026 1935.63 L 392.531 1856.85 C 385.759 1840.16 377.882 1823.37 372.565 1806.17 A 92.2578 92.2578 0 0 1 370.853 1799.92 z"/>
<path transform="translate(0,0)" fill="rgb(0,0,0)" d="M 528.222 1024.45 C 577.467 948.344 641.877 888.828 723.39 848.759 C 735.699 842.708 750.629 833.441 763.96 830.295 C 766.601 829.672 768.577 829.241 770.951 830.852 C 777.724 835.45 786.273 848.994 791.761 855.582 C 799.885 865.336 808.324 874.97 817.284 883.969 C 867.005 933.902 931.799 984.933 996.117 1014.32 C 1005.66 1018.68 1018.72 1025.29 1029.48 1024.55 C 1045.55 1023.44 1068.89 1008.16 1082.52 999.654 A 802.331 802.331 0 0 0 1245.11 866.252 C 1256.6 854.185 1266.33 840.52 1277.81 828.518 C 1295.56 834.252 1312.75 843.253 1329.22 851.921 C 1405.4 891.997 1478.5 951.611 1522.96 1026.2 C 1538.64 1026.15 1554.56 1025.64 1570.2 1026.74 A 499.151 499.151 0 0 1 1892.55 1173.15 A 532.892 532.892 0 0 1 2038 1438.9 C 2040.67 1450.87 2045.3 1496.71 2048 1501.07 L 2048 1581.92 C 2043.72 1589.16 2043.62 1598.97 2041.49 1607.07 C 2034.2 1634.77 2018.38 1661.68 1997.23 1681.01 C 1973.47 1702.74 1939.01 1719.28 1907.6 1725.87 C 1878.21 1732.03 1847.7 1730.36 1817.83 1730.35 L 1717.42 1730.28 L 1601.25 1729.88 C 1571.49 1730.01 1541.59 1731.09 1511.85 1729.68 A 9131.45 9131.45 0 0 1 1511.71 1565.32 L 1511.55 1364.26 A 10552.8 10552.8 0 0 0 1511.73 1238.27 C 1511.63 1218.9 1509.92 1199.04 1510.83 1179.78 A 13347.5 13347.5 0 0 0 1285.21 1179.93 L 804.71 1179.97 L 615.971 1180.27 A 3951.64 3951.64 0 0 0 567.382 1180.53 C 556.816 1180.62 545.909 1181.3 535.425 1179.88 C 536.323 1195.5 535.792 1211.41 535.843 1227.06 L 535.911 1317.97 L 536.01 1567.75 C 536.002 1584.59 537.423 1720.84 535.57 1726.48 C 534.938 1728.4 535.089 1728.22 533.561 1728.91 C 530.874 1730.12 527.511 1730.23 524.606 1730.29 C 504.682 1730.71 484.529 1729.71 464.566 1729.69 L 313.232 1729.81 L 225.045 1730.28 C 206.024 1730.41 186.549 1731.1 167.595 1729.65 A 201.755 201.755 0 0 1 107.306 1715.68 C 59.7592 1696.97 21.6786 1664.24 8.13836 1613.9 C 5.17435 1602.87 5.22004 1584.66 0.762034 1575.46 C 0.521465 1574.96 0.254011 1574.48 0 1573.99 L 0 1500.35 C 0.0902527 1500.09 0.185002 1499.83 0.270758 1499.56 C 4.8386 1485.55 4.73873 1468.95 7.22657 1454.38 C 10.7126 1433.96 16.5132 1412.6 22.4893 1392.76 C 61.5469 1263.13 153.421 1147.54 273.804 1084.61 C 350.197 1044.67 441.469 1019.47 528.222 1024.45 z"/>
</svg>