<svg id="Layer_1" viewBox="0 0 512 512" xmlns="http://www.w3.org/2000/svg" data-name="Layer 1"><path d="m102.518 104.729h-12.416c5.301-21.43 16.356-40.592 31.493-55.701 21.572-21.572 51.392-34.923 84.331-34.923s62.731 13.351 84.302 34.923c15.137 15.109 26.22 34.271 31.493 55.701h-12.416c-4.989-18.113-14.627-34.299-27.553-47.225-19.417-19.389-46.205-31.408-75.827-31.408s-56.438 12.019-75.855 31.408c-12.926 12.926-22.535 29.112-27.553 47.225zm135.893 242.901v-15.052c0-4.847 2.013-9.241 5.244-12.359l-10.148-66.019c-1.049-6.832-.255-13.266 3.94-18.964 4.479-6.038 11.225-9.439 18.709-9.439h53.036c-14.712-9.694-32.542-16.781-51.789-21.26-14.457 10.488-32.258 16.668-51.477 16.668s-37.049-6.179-51.505-16.668c-49.918 11.594-90.255 40.819-91.956 87.619v60.633h176.74c-.51-1.616-.794-3.373-.794-5.159zm10.942-199.758h31.011c.907-4.706 1.389-9.553 1.389-14.513 0-41.896-33.959-75.855-75.827-75.855s-75.855 33.959-75.855 75.855 33.959 75.855 75.855 75.855c22.479 0 42.69-9.808 56.58-25.342h-13.153c-9.921 0-18-8.079-18-18s8.079-18 18-18zm-164.353 18h17.943c4.224 0 7.654-3.458 7.654-7.654v-33.846c0-4.195-3.43-7.625-7.654-7.625h-17.943c-4.195 0-7.653 3.43-7.653 7.625v33.846c0 4.195 3.458 7.654 7.653 7.654zm216.227-41.499v33.846c0 4.195 3.43 7.654 7.654 7.654h17.943c4.195 0 7.654-3.458 7.654-7.654v-33.846c0-4.195-3.458-7.625-7.654-7.625h-17.943c-4.224 0-7.654 3.43-7.654 7.625zm-11.934 35.49h-39.94c-3.316 0-5.981 2.693-5.981 6.01s2.665 5.981 5.981 5.981h45.411c-3.062-3.146-5.074-7.342-5.471-11.991zm190.857-12.756c-25.172 25.172-63.865 28.602-92.721 10.29l-5.811 1.559-25.795 6.917 6.917-25.795 1.559-5.839c-18.312-28.857-14.882-67.521 10.29-92.693 29.14-29.14 76.394-29.14 105.562 0 29.14 29.14 29.14 76.394 0 105.562zm-46.771-67.776c0-3.316-2.693-5.981-6.01-5.981s-6.01 2.665-6.01 5.981v55.616c0 3.317 2.693 6.01 6.01 6.01s6.01-2.693 6.01-6.01zm0-25.625c0-3.316-2.693-6.009-6.01-6.009s-6.01 2.693-6.01 6.009v.539c0 3.317 2.693 6.01 6.01 6.01s6.01-2.693 6.01-6.01zm13.096 311.103h-425.651c-5.953 0-10.828 4.847-10.828 10.8v13.181c0 5.953 4.876 10.8 10.828 10.8h425.65c5.925 0 10.8-4.847 10.8-10.8v-13.181c0-5.953-4.875-10.8-10.8-10.8zm-422.278 133.086h418.904v-86.287h-418.904zm417.628-255.516c-2.183-2.976-5.358-4.564-9.071-4.564h-176.598c-3.685 0-6.86 1.587-9.071 4.564-2.183 2.948-2.268 6.35-1.729 10.006l9.723 63.014h178.781l9.695-63.014c.567-3.657.482-7.058-1.729-10.006zm-186.236 85.011c-2.863 0-5.188 2.324-5.188 5.188v15.052c0 2.834 2.324 5.159 5.188 5.159h177.761c2.863 0 5.187-2.324 5.187-5.159v-15.052c0-2.863-2.324-5.188-5.187-5.188z" fill-rule="evenodd"/></svg>