<svg id="Capa_1" enable-background="new 0 0 512 512" height="512" viewBox="0 0 512 512" width="512" xmlns="http://www.w3.org/2000/svg"><g><g id="Page-1_85_"><g id="_x30_86---Repair-Laptop-Location"><path id="Path_529_" clip-rule="evenodd" d="m18.286 100.571v320h200.229c-54.355-32.137-154.515-109.933-154.515-246.857.016-35.551 9.98-70.388 28.763-100.571h-47.049c-7.275 0-14.251 2.89-19.395 8.034-5.143 5.143-8.033 12.12-8.033 19.394z" fill-rule="evenodd"/><path id="Path_528_" clip-rule="evenodd" d="m192 466.286h128c10.099 0 18.286-8.187 18.286-18.286v-9.143h-164.572v9.143c0 10.099 8.187 18.286 18.286 18.286z" fill-rule="evenodd"/><path id="Shape_180_" d="m286.016 193.673c19.696-10.447 32.528-30.397 33.867-52.651s-9.01-43.599-27.312-56.331v31.086c.005 6.08-3.037 11.758-8.101 15.122l-18.377 12.251c-6.151 4.185-14.246 4.142-20.352-.11l-18.085-11.995c-5.144-3.388-8.237-9.137-8.229-15.296v-31.086c-19.595 13.72-29.945 37.189-26.862 60.91 2.679 20.407 15.075 38.254 33.262 47.89 6.624 3.46 10.476 10.603 9.728 18.039l-10.641 95.698c20.432 4.916 41.739 4.916 62.171 0l-10.615-95.817c-.76-7.304 3.027-14.329 9.546-17.71zm-20.873 89.756c0 5.049-4.093 9.143-9.143 9.143-5.049 0-9.143-4.093-9.143-9.143v-36.571c0-5.049 4.093-9.143 9.143-9.143 5.049 0 9.143 4.093 9.143 9.143z"/><path id="Path_527_" clip-rule="evenodd" d="m207.122 301.714 10.213-92.206c-23.489-12.318-39.501-35.31-42.907-61.614-4.269-32.882 11.582-65.121 40.229-81.819 4.715-2.762 10.554-2.762 15.269 0 4.79 2.757 7.756 7.85 7.79 13.376v36.297l18.284 12.252 18.286-12.242v-36.307c.013-5.539 2.983-10.65 7.79-13.403 4.72-2.78 10.576-2.78 15.296 0 25.818 14.998 41.476 42.813 40.906 72.665s-17.278 57.05-43.649 71.051l10.24 91.95c61.815-23.577 97.987-87.923 86-152.987-11.987-65.063-68.715-112.294-134.874-112.294s-122.886 47.231-134.873 112.295 24.185 129.41 86 152.986z" fill-rule="evenodd"/><path id="Shape_179_" d="m256 419.739c24.594-11.118 173.714-85.239 173.714-246.025 0-95.939-77.774-173.714-173.714-173.714s-173.714 77.775-173.714 173.714c0 160.787 149.12 234.908 173.714 246.025zm0-401.453c85.841 0 155.429 69.588 155.429 155.429s-69.588 155.428-155.429 155.428-155.429-69.588-155.429-155.429c.096-85.801 69.628-155.333 155.429-155.428z"/><path id="Path_526_" clip-rule="evenodd" d="m493.714 420.571v-320c0-15.148-12.28-27.429-27.429-27.429h-47.049c18.784 30.183 28.747 65.021 28.763 100.571 0 136.923-100.16 214.72-154.514 246.857h200.229z" fill-rule="evenodd"/><path id="Shape_178_" d="m356.571 438.857v9.143c0 20.198-16.374 36.571-36.571 36.571h-128c-20.198 0-36.571-16.374-36.571-36.571v-9.143h-155.429v27.429c.03 25.235 20.48 45.684 45.714 45.714h420.571c25.235-.03 45.684-20.479 45.714-45.714v-27.429zm-329.142 36.572c-5.049 0-9.143-4.093-9.143-9.143s4.093-9.143 9.143-9.143 9.143 4.093 9.143 9.143-4.094 9.143-9.143 9.143zm36.571 0c-5.049 0-9.143-4.093-9.143-9.143s4.093-9.143 9.143-9.143 9.143 4.093 9.143 9.143-4.094 9.143-9.143 9.143zm64 0h-27.429c-5.049 0-9.143-4.093-9.143-9.143s4.093-9.143 9.143-9.143h27.429c5.049 0 9.143 4.093 9.143 9.143s-4.094 9.143-9.143 9.143z"/></g></g></g></svg>