<svg version="1.1" xmlns="http://www.w3.org/2000/svg" style="display: block;" viewBox="0 0 2048 2048" width="512" height="512">
<path transform="translate(0,0)" fill="rgb(0,0,0)" d="M 0 0 L 1000.36 0 L 1055.64 0 L 2048 0 L 2048 991.974 L 2048 1051.72 L 2048 2048 L 1064.13 2048 L 988.039 2048 L 0 2048 L 0 1051.79 L 0 988.291 L 0 0 z M 1021.62 332.399 C 993.989 334.622 967.755 346.176 949.663 367.654 A 95.1505 95.1505 0 0 0 927.764 436.672 A 88.3696 88.3696 0 0 0 960.206 497.76 C 968.748 504.758 978.501 509.213 987.852 514.92 C 988.446 555.279 987.175 595.731 988.148 636.062 L 841.272 636.082 C 817.854 636.098 793.547 637.533 770.261 635.896 L 770.268 739.587 C 770.309 758.89 771.682 779.317 769.512 798.453 L 690.506 798.348 C 672.466 798.372 652.351 800.226 634.673 796.201 C 634.304 796.117 633.93 796.052 633.563 795.957 C 627.327 794.357 584.438 749.426 580.985 742.499 C 578.748 738.012 578.132 654.995 581.153 648.842 C 584.313 642.406 601.996 633.771 608.293 628.823 C 635.011 607.827 645.42 568.338 636.69 536.283 C 630.22 512.531 613.667 490.392 592.178 478.221 C 571.007 466.231 543.089 464.631 519.966 471.171 C 495.638 478.052 475.896 492.979 463.521 515.131 C 451.581 536.505 447.631 562.408 454.439 586.108 C 460.193 606.142 472.993 622.622 489.731 634.813 C 495.545 639.047 502.553 642.708 507.753 647.6 C 508.235 688.322 506.662 729.316 508.094 769.98 A 1812.76 1812.76 0 0 1 568.598 830.905 C 579.142 841.828 589.678 854.667 601.761 863.808 C 657.9 865.762 714.264 863.002 770.436 864.369 C 770.392 880.844 772.316 981.191 769.073 988.746 C 766.591 990.345 764.125 990.683 761.231 990.862 C 745.458 991.835 728.882 991.155 713.05 991.028 A 5835.18 5835.18 0 0 0 637.403 990.784 L 564.45 991.037 C 545.714 991.173 526.117 992.62 507.626 989.128 C 492.898 962.446 475.9 940.801 445.195 932.049 C 423.064 925.742 394.416 927.569 374.167 938.946 C 351.107 951.903 333.046 974.04 325.939 999.545 C 319.285 1023.42 322.111 1048.12 334.331 1069.71 C 346.768 1091.7 367.996 1109.02 392.567 1115.55 A 97.5079 97.5079 0 0 0 466.679 1105.34 C 485.455 1094.33 496.604 1078.82 507.942 1060.73 C 522.671 1059.19 537.837 1059.89 552.642 1059.89 L 626.669 1059.87 L 717.442 1059.73 C 734.754 1059.74 752.424 1059.15 769.69 1060.42 C 770.821 1081.4 770.26 1102.58 770.183 1123.58 C 770.111 1143.11 770.951 1163.35 768.096 1182.69 C 749.004 1181.67 729.677 1182.32 710.559 1182.37 L 595.91 1182.77 C 575.534 1200.21 557.413 1220.91 538.749 1240.16 C 529.599 1249.59 517.591 1259 510.652 1270.13 C 509.173 1299.68 510.071 1329.62 510.166 1359.2 C 510.204 1371.02 511.822 1385.44 509.428 1396.96 C 508.744 1400.25 507.143 1402.54 504.622 1404.74 C 498.744 1409.86 491.724 1413.89 485.57 1418.72 C 465.682 1434.35 452.958 1455.09 450.588 1480.48 C 448.508 1502.77 453.39 1526.8 467.699 1544.55 C 484.059 1564.84 508.507 1578.71 534.524 1581.03 C 559.024 1583.2 584.814 1574.84 603.608 1559 C 622.707 1542.9 635.071 1521.08 637.044 1496.02 C 638.925 1472.12 630.367 1447.36 614.659 1429.29 C 610.766 1424.81 606.248 1420.29 601.423 1416.81 C 595.784 1412.76 585.55 1408.89 581.564 1403.52 C 577.563 1398.13 578.957 1316.86 579.651 1305.07 A 86.402 86.402 0 0 1 580.489 1296.66 C 591.788 1282.75 614.78 1260.09 628.849 1249.6 C 650.005 1247.63 671.823 1248.41 693.084 1248.45 C 718.595 1248.49 744.283 1248.1 769.772 1248.89 C 772.021 1299.88 767.89 1351.17 770.256 1402.15 C 817.771 1400.25 865.937 1401.77 913.507 1401.71 L 960.052 1401.64 C 968.902 1401.61 978.565 1400.73 987.289 1402.13 C 989.314 1404.21 989.53 1407.3 989.823 1410.07 C 991.243 1423.49 990.051 1437.72 990.004 1451.25 C 989.929 1472.58 990.496 1493.95 990.173 1515.27 C 990.085 1521.02 989.834 1527.42 985.371 1531.58 C 979.4 1537.14 971.75 1540.88 965.328 1545.92 C 944.156 1562.54 932.119 1586.57 930.569 1613.33 C 929.303 1635.17 936.185 1658.5 951.06 1674.85 C 969.325 1694.92 992.495 1708.03 1019.99 1708.9 C 1026.7 1709.11 1033.56 1708.56 1040.21 1707.73 C 1067.97 1700.84 1089.64 1687 1104.56 1661.96 C 1116.92 1641.21 1119.71 1616.62 1113.61 1593.36 C 1105.38 1561.95 1085.18 1545.98 1058.53 1529.87 C 1057.06 1487.33 1058.69 1444.7 1057.72 1402.15 C 1131.41 1401.18 1205.37 1403.56 1279 1401.62 C 1276.87 1384.37 1278.81 1365.81 1278.93 1348.43 C 1279.16 1315.59 1278.86 1282.62 1278.51 1249.77 C 1303.98 1246.65 1330.72 1248.11 1356.37 1248.12 C 1376.45 1248.12 1398.01 1246.64 1417.87 1249.48 C 1430.45 1258.42 1457.14 1285.62 1467.99 1297.75 C 1469.14 1316.38 1468.43 1335.3 1468.34 1353.96 C 1468.27 1370.83 1468.88 1388.06 1467.88 1404.89 C 1440.84 1418.57 1420.88 1434.93 1411.18 1464.75 C 1403.49 1488.36 1405.43 1512.31 1416.98 1534.33 C 1428.09 1555.48 1449.05 1572.36 1471.86 1579.3 C 1496.01 1586.65 1525.27 1583.85 1547.41 1571.74 A 92.0145 92.0145 0 0 0 1590.94 1517.1 C 1597.65 1493.25 1595.96 1465.11 1583.46 1443.37 C 1574.12 1427.14 1557.88 1412.67 1540.07 1406.49 C 1539.98 1388.59 1542.09 1282.64 1538.21 1274.03 C 1533.65 1263.91 1467.1 1200.04 1454.54 1187.6 C 1452.14 1185.23 1449.85 1183.12 1447.07 1181.19 C 1432.57 1179.15 1417.19 1180.08 1402.55 1180.1 L 1325.02 1180.2 C 1309.87 1180.22 1294.02 1181.01 1278.95 1179.63 C 1278.3 1156.18 1278.77 1132.79 1278.96 1109.35 C 1279.09 1092.93 1278.62 1076.51 1279.66 1060.11 C 1301.46 1058.4 1323.14 1059.1 1344.98 1059.33 L 1411.5 1059.46 L 1488.85 1059.24 C 1501.87 1059.12 1515.22 1058.07 1528.2 1058.8 C 1532.96 1059.06 1538.57 1059.7 1542.3 1062.95 C 1548.46 1068.29 1552.31 1077.41 1557.53 1083.83 C 1576.91 1107.69 1604.12 1119.36 1634.78 1117.69 C 1660.37 1116.29 1684.43 1103.78 1701.42 1084.73 A 92.0899 92.0899 0 0 0 1724.99 1015.7 A 94.2923 94.2923 0 0 0 1692.85 950.868 C 1673.6 934.4 1648.79 925.71 1623.49 928.029 C 1596.76 930.477 1572.94 943.972 1555.96 964.597 C 1549.08 972.958 1544.37 982.19 1539.07 991.552 A 14679.1 14679.1 0 0 0 1363.59 990.87 C 1335.79 990.889 1307.23 989.601 1279.53 991.373 C 1278.87 950.548 1277.65 905.322 1279.79 864.79 C 1333.55 860.751 1388.08 866.433 1441.86 863.7 C 1463.52 846.188 1482.85 825.126 1502.67 805.599 C 1513.03 795.395 1525.21 785.563 1534.34 774.342 C 1536.61 771.543 1538.22 769.394 1538.67 765.715 C 1539.77 756.666 1539.01 746.739 1538.98 737.618 C 1538.86 709.369 1536.41 674.379 1539.26 647.072 C 1539.54 646.854 1539.81 646.632 1540.09 646.417 C 1547.66 640.565 1556.26 636.272 1563.88 630.458 C 1582.23 616.458 1596.73 593.542 1599.82 570.487 A 93.0485 93.0485 0 0 0 1580.87 500.873 C 1565.77 481.401 1541.39 466.644 1516.79 463.817 C 1491.38 460.898 1465.53 467.209 1445.48 483.319 C 1426.01 498.957 1411.15 522.114 1408.45 547.268 C 1405.78 572.114 1412.3 596.048 1428.06 615.469 C 1439.56 629.639 1454.18 638.234 1470.2 646.509 C 1470.23 678.103 1471.08 709.698 1470.35 741.291 C 1463.06 753.46 1429.85 783.06 1417.76 795.549 C 1374.5 800.319 1323.63 795.572 1279.59 796.142 C 1278.87 743.122 1281.25 689.919 1278.64 636.96 C 1248.83 634.19 1217.52 635.982 1187.53 635.991 C 1145.26 636.002 1102.68 634.955 1060.45 636.253 A 4254.98 4254.98 0 0 0 1060.28 555.959 C 1060.23 541.912 1059.52 527.323 1061.02 513.367 C 1085.65 502.329 1104.69 484.52 1114.29 458.972 A 90.1694 90.1694 0 0 0 1111.78 388.862 C 1100.78 364.689 1080.71 347.046 1055.82 338.038 C 1045.09 334.155 1033.04 332.149 1021.62 332.399 z M 0 0 L 0 988.291 C 1.34275 986.267 2.1963 984.376 2.76567 982.018 C 4.82736 973.478 5.8165 964.427 7.45076 955.779 C 9.78331 943.435 12.9949 931.113 16.5533 919.068 C 21.9738 900.72 29.5687 882.068 38.232 865.024 C 79.3845 784.06 152.931 726.302 238.669 698.645 C 236.343 692.644 233.602 686.788 231.214 680.803 C 198.523 598.861 201.092 501.325 235.95 420.467 A 346.986 346.986 0 0 1 425.508 234.187 C 516.943 197.91 607.674 202.368 697.325 241.18 C 708.665 209.07 722.148 177.522 740.851 148.929 C 783.662 83.4801 854.061 35.7866 928.526 13.6236 C 939.606 10.3255 951.343 8.21153 962.746 6.30085 C 971.909 4.76542 991.929 4.82422 999.133 0.76192 C 999.552 0.525747 999.95 0.253973 1000.36 0 L 0 0 z M 1055.64 0 C 1056.14 0.321258 1056.63 0.659982 1057.14 0.963775 C 1063.75 4.89437 1077.25 4.58052 1085.09 5.61401 C 1099.17 7.47015 1113.68 11.8125 1127.27 15.911 C 1226.14 45.7135 1310.69 124.505 1341.37 223.949 C 1342.94 229.044 1344.42 239.648 1348.78 242.905 C 1360.72 241.111 1374.32 232.553 1385.69 227.909 C 1396.94 223.315 1408.68 219.804 1420.45 216.83 C 1512.31 193.635 1617.06 214.431 1693.45 270.606 C 1769.47 326.512 1821.51 406.301 1835.61 500.165 C 1845.43 565.497 1838.07 631.69 1810.29 691.946 C 1889.58 723.924 1952.13 766.14 1997.17 840.694 C 2005.56 854.582 2013.54 868.734 2019.87 883.695 C 2028.9 905 2036.35 928.206 2040.86 950.909 C 2042.91 961.234 2042.79 984.146 2048 991.974 L 2048 0 L 1055.64 0 z M 0 1051.79 L 0 2048 L 988.039 2048 C 981.061 2043.15 954.21 2041.2 944.619 2039.01 C 934.441 2036.68 924.289 2033.69 914.359 2030.48 C 890.103 2022.62 866.558 2011.11 844.715 1998.03 A 350.628 350.628 0 0 1 709.636 1847.96 C 703.686 1835.35 697.913 1822.73 694.517 1809.16 L 669.593 1819.16 C 591.565 1849.99 495.724 1847.2 419.207 1813.75 C 334.301 1776.64 264.823 1708.53 231.319 1621.42 C 198.823 1536.93 200.192 1437.12 237.312 1354.23 C 217.494 1344.32 197.104 1337.01 177.771 1325.83 C 100.697 1281.27 39.988 1209.42 13.9874 1123.71 C 10.7396 1113 8.16145 1101.5 6.25546 1090.48 C 4.61204 1080.98 5.33093 1060.55 0.774183 1052.96 C 0.533879 1052.56 0.258061 1052.18 0 1051.79 z M 1812.1 1354.72 C 1820.86 1378.02 1829.49 1402 1834.97 1426.32 A 336.047 336.047 0 0 1 1811.54 1639.06 A 349.093 349.093 0 0 1 1617.1 1820.05 A 335.92 335.92 0 0 1 1359.52 1812.03 C 1356.98 1810.88 1354.54 1809.58 1352.08 1808.28 C 1351.73 1808.09 1351.37 1807.91 1351.02 1807.73 C 1343.77 1826.22 1337.31 1844.82 1328.3 1862.58 A 340.441 340.441 0 0 1 1159.09 2021.31 C 1141.16 2029.09 1122.1 2034.59 1103.2 2039.57 C 1092.03 2042.51 1073.26 2042.31 1064.13 2048 L 2048 2048 L 2048 1051.72 C 2047.7 1052.22 2047.38 1052.71 2047.09 1053.22 C 2042.25 1061.75 2043.54 1082.22 2041.68 1092.66 C 2039.43 1105.19 2035.94 1117.68 2032.2 1129.85 C 2009.19 1204.64 1954.86 1274.77 1888.76 1316.66 C 1864.49 1332.04 1838.27 1343.09 1812.1 1354.72 z"/>
<path transform="translate(0,0)" fill="rgb(0,0,0)" d="M 841.138 704.335 C 901.695 703.59 962.309 704.098 1022.87 704.093 C 1084.6 704.087 1146.36 703.589 1208.08 704.319 C 1207.2 758.355 1208.09 812.542 1208.08 866.594 L 1208.04 1192.22 L 1208.07 1289.99 C 1208.08 1299.33 1209.69 1322.02 1207.44 1329.88 C 1206.94 1331.62 1206.62 1331.36 1205.13 1332.18 C 1154.28 1334.02 1103.06 1332.93 1052.19 1332.79 L 840.349 1332.19 C 840.932 1314.3 840.428 1296.25 840.488 1278.34 L 840.525 1160.05 L 840.364 859.634 L 840.223 755.238 C 840.192 739.172 838.15 719.965 841.138 704.335 z"/>
</svg>