<svg id="Layer_1" enable-background="new 0 0 512 512" viewBox="0 0 512 512" xmlns="http://www.w3.org/2000/svg"><path d="m363.47 383.72c-7.54-2.57-15.59-2.07-22.67 1.41l-7.7 3.79c-.15-.33-.3-.67-.46-1-7.24-14.67-25.06-20.73-39.74-13.51l-39.3 19.33c-15.89-4.26-31.77-8.51-47.66-12.77-22.39-6-44.78-11.99-67.17-18-18.77-5.02-36.67-2.42-53.2 7.74l-19.43 11.93-2-6.68c-1.03-3.51-3.37-6.41-6.59-8.15-3.23-1.75-6.95-2.13-10.46-1.07l-33.46 10.02c-3.52 1.03-6.42 3.38-8.17 6.61-1.73 3.2-2.12 6.89-1.08 10.43l5.58 18.65c1.27 4.24 5.73 6.65 9.97 5.37 4.24-1.27 6.64-5.73 5.37-9.97l-4.91-16.41 29.05-8.7 31.16 103.98-29.05 8.69-19.91-66.47c-1.27-4.24-5.73-6.64-9.97-5.37s-6.64 5.73-5.37 9.97l20.58 68.73c1.06 3.51 3.42 6.39 6.66 8.12 2.02 1.08 4.22 1.62 6.43 1.62 1.32 0 2.65-.2 3.94-.59l33.51-10.03c3.5-1.04 6.39-3.39 8.14-6.63 1.74-3.24 2.12-6.95 1.06-10.41l-1.44-4.82 97.24 26.05c6.04 1.62 12.04 2.42 17.96 2.42 10.13 0 20.06-2.37 29.66-7.08 40.96-20.15 81.9-40.31 122.84-60.46l4.15-2.05c7.11-3.5 12.43-9.57 14.99-17.11 2.56-7.52 2.04-15.56-1.45-22.64-3.5-7.06-9.56-12.37-17.1-14.94zm-63.5 5.07c6.76-3.33 14.98-.54 18.31 6.23.16.32.29.66.43.99l-42.23 20.79c-.57-2.74-1.53-5.4-2.86-7.91-1.02-1.93-2.26-3.71-3.66-5.35zm66.87 27.37c-1.18 3.48-3.63 6.28-6.9 7.89l-4.16 2.05c-40.94 20.15-81.87 40.3-122.83 60.46-11.79 5.79-23.7 6.96-36.4 3.56l-106.78-28.61-18.87-62.97 23.06-14.16c12.64-7.77 26.32-9.76 40.67-5.92 22.39 6.01 44.78 12 67.17 18 16.39 4.39 32.79 8.78 49.19 13.18 3.67.98 6.69 3.39 8.49 6.78 1.76 3.3 2.1 7.03 1 10.55-1.03 3.24-3.2 5.96-6.2 7.69-3.18 1.83-6.86 2.32-10.37 1.38l-69.68-18.65c-4.27-1.15-8.66 1.39-9.81 5.66-1.14 4.27 1.39 8.66 5.66 9.81l69.67 18.65c2.54.68 5.13 1.02 7.7 1.02 5.14 0 10.22-1.35 14.81-4 5.24-3.02 9.33-7.44 11.9-12.73l56.67-27.9c.27-.12.53-.24.78-.38l16.25-8c3.23-1.59 6.94-1.81 10.42-.62 3.49 1.19 6.29 3.63 7.89 6.87 1.62 3.23 1.85 6.92.67 10.39zm-154.81-140.91c0 24.25 19.73 43.98 43.98 43.98 24.23 0 43.95-19.73 43.95-43.98 0-24.23-19.72-43.95-43.95-43.95-24.25 0-43.98 19.71-43.98 43.95zm71.92 0c0 15.42-12.53 27.96-27.94 27.96-15.42 0-27.96-12.54-27.96-27.96 0-15.4 12.54-27.94 27.96-27.94 15.41 0 27.94 12.53 27.94 27.94zm218.51-240.05c4.42 0 8.01-3.58 8.01-8.01v-13.41c0-7.6-6.19-13.79-13.79-13.79h-112.31c-7.6 0-13.79 6.19-13.79 13.79v81.47c0 7.6 6.19 13.79 13.79 13.79h32.16l-.91 6.09h-2.22c-4.42 0-8.01 3.58-8.01 8.01s3.58 8.01 8.01 8.01h9.13 9.99v23.7h-168.5v-23.7h9.96 9.13c4.42 0 8.01-3.58 8.01-8.01s-3.58-8.01-8.01-8.01h-2.22l-.91-6.09h32.18c7.6 0 13.79-6.19 13.79-13.79v-81.47c0-7.6-6.19-13.79-13.79-13.79h-112.33c-7.59 0-13.76 6.19-13.76 13.79v81.47c0 7.6 6.17 13.79 13.76 13.79h32.18l-.91 6.09h-2.22c-4.42 0-8.01 3.58-8.01 8.01s3.58 8.01 8.01 8.01h9.13 9.99v23.7h-168.51v-23.7h9.99 9.13c4.42 0 8.01-3.58 8.01-8.01s-3.58-8.01-8.01-8.01h-2.22l-.91-6.09h32.18c7.59 0 13.76-6.19 13.76-13.79v-81.47c0-7.6-6.17-13.79-13.76-13.79h-112.34c-7.6 0-13.79 6.19-13.79 13.79v81.47c0 7.6 6.19 13.79 13.79 13.79h32.18l-.91 6.09h-2.22c-4.42 0-8.01 3.58-8.01 8.01s3.58 8.01 8.01 8.01h9.13 9.96v31.71c0 4.42 3.59 8.01 8.01 8.01h176.53v15.28h-1.03c-6.15 0-11.57 3.93-13.51 9.81l-3.58 11.01c-1.27.49-2.5 1-3.69 1.54l-10.3-5.24c-5.5-2.81-12.14-1.77-16.5 2.59l-12.83 12.8c-4.33 4.4-5.36 11.02-2.56 16.49l5.25 10.3c-.53 1.18-1.04 2.42-1.52 3.68l-10.94 3.57c-5.93 1.87-9.91 7.31-9.91 13.53v18.06c0 6.16 3.95 11.59 9.85 13.51l10.99 3.56c.46 1.2.96 2.42 1.53 3.7l-5.25 10.31c-2.82 5.5-1.77 12.14 2.6 16.51l12.78 12.78c4.37 4.37 11.01 5.42 16.49 2.61l10.32-5.25c1.26.56 2.47 1.06 3.67 1.52l3.59 11.02c1.91 5.86 7.34 9.81 13.51 9.81h18.06c6.17 0 11.6-3.94 13.51-9.81l3.59-11.02c1.27-.48 2.5-.99 3.67-1.52l10.3 5.24c5.47 2.8 12.1 1.77 16.54-2.61l12.75-12.78c4.37-4.37 5.42-11.01 2.61-16.49l-5.25-10.32c.5-1.12 1.04-2.38 1.56-3.71l10.97-3.55c5.88-1.92 9.83-7.35 9.83-13.51v-18.06c0-6.23-3.98-11.67-9.83-13.51l-10.99-3.58c-.46-1.18-.97-2.41-1.55-3.7l5.25-10.29c2.8-5.47 1.77-12.1-2.6-16.54l-12.8-12.8c-4.39-4.33-11.02-5.36-16.48-2.57l-10.31 5.25c-1.16-.53-2.38-1.04-3.69-1.54l-3.59-11.04c-1.93-5.85-7.35-9.78-13.5-9.78h-1.01v-15.28h176.5c4.42 0 8.01-3.59 8.01-8.01v-31.71h9.96 9.13c4.42 0 8.01-3.58 8.01-8.01s-3.58-8.01-8.01-8.01h-2.22l-.91-6.09h32.18c7.6 0 13.79-6.19 13.79-13.79v-46.04c0-4.42-3.58-8.01-8.01-8.01s-8.01 3.58-8.01 8.01v16h-107.83v-49.18h107.86v11.18c0 4.42 3.59 8.01 8.01 8.01zm-192.52-19.19v49.18h-107.86v-49.18zm-107.86 65.19h107.86v11.82h-107.86zm46.13 27.84h15.58l.91 6.09h-17.4zm-122.8-93.03v49.18h-107.86v-49.18zm-107.86 65.19h107.86v11.82h-107.86zm46.15 27.84h15.59l.91 6.09h-17.4zm203.45 103.67c1.35 4.23 4.4 7.42 8.6 8.97 1.51.56 2.83 1.11 4.03 1.69l.12.06c4.06 1.87 8.48 1.77 12.4-.25l9.94-5.06 10.91 10.91-5.04 9.87c-2.02 3.91-2.12 8.45-.26 12.48.7 1.52 1.27 2.87 1.74 4.14 1.55 4.2 4.73 7.25 8.91 8.58l10.6 3.46v15.41l-10.65 3.45c-4.18 1.4-7.33 4.45-8.87 8.6-.54 1.46-1.19 2.94-1.74 4.15-1.87 4.06-1.77 8.48.25 12.4l5.05 9.92-10.9 10.93-9.85-5.01c-3.9-2.05-8.45-2.15-12.5-.29-1.29.6-2.68 1.17-4.14 1.71-4.13 1.52-7.27 4.8-8.58 8.94l-3.45 10.58h-15.43l-3.43-10.52c-1.33-4.19-4.47-7.47-8.6-9-1.35-.5-2.72-1.06-4.15-1.72-4.06-1.87-8.48-1.77-12.39.25l-9.92 5.05-10.92-10.92 5.03-9.88c2.04-3.96 2.14-8.38.29-12.4-.67-1.47-1.24-2.84-1.73-4.19-1.53-4.14-4.69-7.19-8.96-8.62l-10.59-3.43v-15.41l10.55-3.44c4.19-1.33 7.47-4.47 9-8.6.54-1.45 1.11-2.85 1.72-4.15 1.85-4.01 1.75-8.55-.25-12.43l-5.05-9.9 10.93-10.9 9.97 5.08c3.97 1.98 8.35 2.06 12.42.19 1.34-.63 2.67-1.19 4.09-1.71 4.2-1.55 7.25-4.73 8.58-8.92l3.45-10.6h15.43zm182.06-97.58h-17.4l.91-6.09h15.59zm45.24-33.93v11.82h-107.86v-11.82z"/></svg>