<?xml version="1.0" encoding="utf-8"?>
<!-- Generator: Adobe Illustrator 25.2.1, SVG Export Plug-In . SVG Version: 6.00 Build 0)  -->
<svg version="1.1" id="Layer_1" xmlns="http://www.w3.org/2000/svg" xmlns:xlink="http://www.w3.org/1999/xlink" x="0px" y="0px"
	 viewBox="0 0 512 512" style="enable-background:new 0 0 512 512;" xml:space="preserve">
<style type="text/css">
	.st0{fill:#FF4500;}
</style>
<g>
	<path class="st0" d="M298.9,294.9v-57.4l33.7-16.9l-33.7-67.8v-22.2c13.9-0.2,23.2-1,24-1.1l9.4-0.8l-2.6-9.1
		c-0.9-3.3-23.9-81-103.8-103.8c-16.6-5-33.8-7.9-51.1-8.6h-28.3c-33.8,0-66.2,13.4-90,37.2s-37.3,56.3-37.2,90
		c0,36,12.8,70.8,36,98.3l41.7,49.2v48.8l-77.7,94.4v79.3h15.5v-73.8l72.1-87.5c16.2,7.6,33,13.8,50.2,18.6L137,421.8l-71.2,43.5
		v39.3h15.5v-30.6l62.2-38l62.2,38v30.6h15.5v-39.3l-68.4-41.8l19.2-57.7c17.3,4,35,6.2,52.7,6.6l74.2,111.2v21h15.5V479
		l-77.7-116.6v-67.6H298.9z M105.9,268.8L67,222.9c-20.9-24.7-32.3-56-32.4-88.3c0-29.6,11.7-58.1,32.7-79.1s49.4-32.7,79.1-32.7
		h28.1c16,0.7,31.8,3.4,47,8c55.9,16,81.2,63.6,89.7,83.8c-19.8,0.9-39.6,0.4-59.4-1.4c-20.7-29.3-57.5-42.5-92.1-33.1
		c-34.6,9.4-59.6,39.4-62.7,75.1c-3.1,35.7,16.5,69.6,49,84.7L105.9,268.8z M252.3,162.7c0,38.6-31.3,69.9-69.9,69.9
		c-38.6,0-69.9-31.3-69.9-69.9s31.3-69.9,69.9-69.9S252.3,124.1,252.3,162.7z M215.2,279.3l-20.8-14.2l-8.8,12.8l24.7,16.9h10.8v62
		c-37.8-2.1-74.7-11.6-108.8-28v-45.5l51.9-37c31.1,6.8,63.5-4.3,83.9-28.8c20.4-24.5,25.4-58.3,13.1-87.7
		c7.8,0.5,15.2,0.8,22.2,0.9v25.9l28.4,57.1l-28.4,14.2v51.4H215.2z"/>
	<polygon class="st0" points="464.7,31.4 464.7,40.9 483.4,40.9 483.4,59.6 492.9,59.6 492.9,31.4 	"/>
	<polygon class="st0" points="483.4,182.2 464.7,182.2 464.7,191.6 492.9,191.6 492.9,163.5 483.4,163.5 	"/>
	<polygon class="st0" points="360.8,31.4 332.6,31.4 332.6,59.6 342.1,59.6 342.1,40.9 360.8,40.9 	"/>
	<rect x="370.5" y="97.5" class="st0" width="9.4" height="18.8"/>
	<rect x="389.2" y="88.1" class="st0" width="9.4" height="37.5"/>
	<rect x="408" y="97.5" class="st0" width="9.4" height="18.8"/>
	<rect x="426.8" y="88.1" class="st0" width="9.4" height="37.5"/>
	<rect x="445.6" y="97.5" class="st0" width="9.4" height="18.8"/>
	<path class="st0" d="M473.8,69.3H351.7v75.1h18.8v23.2l32.5-23.2h70.8V69.3z M464.3,135H400l-20,14.3V135h-18.8V78.7h103.2V135z"/>
</g>
</svg>
