<?xml version="1.0" encoding="utf-8"?>
<!-- Generator: Adobe Illustrator 25.2.1, SVG Export Plug-In . SVG Version: 6.00 Build 0)  -->
<svg version="1.1" id="Layer_1" xmlns="http://www.w3.org/2000/svg" xmlns:xlink="http://www.w3.org/1999/xlink" x="0px" y="0px"
	 viewBox="0 0 512 512" style="enable-background:new 0 0 512 512;" xml:space="preserve">
<style type="text/css">
	.st0{fill:#FF4500;}
</style>
<g>
	<path class="st0" d="M-566.4,296v-59.1l34.7-17.4l-34.7-69.8V127c14.3-0.2,23.9-1,24.7-1.1l9.7-0.8l-2.7-9.4
		c-1-3.4-24.6-83.4-106.9-106.9c-17.1-5.2-34.8-8.2-52.6-8.9h-29.1c-34.8,0-68.1,13.8-92.7,38.3s-38.4,57.9-38.3,92.7
		c0,37.1,13.2,72.9,37.1,101.2l42.9,50.6v50.2l-80,97.2V512h16v-75.9l74.2-90.1c16.7,7.8,33.9,14.2,51.7,19.2l-20.5,61.5l-73.3,44.8
		V512h16v-31.5l64-39.1l64,39.1V512h16v-40.5l-70.4-43l19.8-59.4c17.8,4.1,36,6.4,54.2,6.8l76.4,114.5V512h16v-26.4l-80-120V296
		H-566.4z M-765,269.2l-40-47.3c-21.5-25.4-33.3-57.6-33.3-90.9c0-30.5,12.1-59.8,33.7-81.4S-753.9,16-723.3,16h29
		c16.4,0.7,32.7,3.5,48.4,8.2c57.6,16.5,83.6,65.5,92.3,86.3c-20.4,0.9-40.8,0.5-61.1-1.5c-21.3-30.1-59.2-43.7-94.8-34
		c-35.6,9.7-61.4,40.6-64.5,77.4c-3.1,36.8,17,71.6,50.5,87.2L-765,269.2z M-614.4,160c0,39.7-32.3,72-72,72c-39.8,0-72-32.2-72-72
		s32.2-72,72-72S-614.4,120.2-614.4,160z M-652.5,280l-21.4-14.6l-9,13.2l25.4,17.4h11.1v63.8c-38.9-2.2-76.9-11.9-112-28.8v-46.9
		L-705,246c32.1,7,65.3-4.4,86.3-29.7c21-25.2,26.2-60,13.4-90.3c8,0.6,15.7,0.8,22.8,1v26.6l29.3,58.8l-29.3,14.6V280H-652.5z"/>
	<polygon class="st0" points="-395.7,24.8 -395.7,34.5 -376.4,34.5 -376.4,53.8 -366.7,53.8 -366.7,24.8 	"/>
	<polygon class="st0" points="-376.4,180 -395.7,180 -395.7,189.8 -366.7,189.8 -366.7,160.7 -376.4,160.7 	"/>
	<polygon class="st0" points="-502.6,24.8 -531.7,24.8 -531.7,53.8 -521.9,53.8 -521.9,34.5 -502.6,34.5 	"/>
	<rect x="-492.7" y="92.8" class="st0" width="9.7" height="19.3"/>
	<rect x="-473.4" y="83.1" class="st0" width="9.7" height="38.6"/>
	<rect x="-454.1" y="92.8" class="st0" width="9.7" height="19.3"/>
	<rect x="-434.7" y="83.1" class="st0" width="9.7" height="38.6"/>
	<rect x="-415.4" y="92.8" class="st0" width="9.7" height="19.3"/>
	<path class="st0" d="M-386.4,63.8H-512v77.4h19.3V165l33.5-23.9h72.9V63.8z M-396.1,131.4h-66.3l-20.6,14.7v-14.7h-19.3V73.5h106.2
		V131.4z"/>
</g>
<path d="M378.3,294.4c-6.8,0-12.8,3.7-16,9.3l-24-5.9v-62.2c1.7-1.9,3.4-3.9,5-5.9c5.1-6.4,5-15.1-0.3-21.4l-10-11.9
	c-1.9-2.2-1.2-4.5-0.9-5.4c0.8-1.9,2.4-3.1,4.4-3.3l15.5-1.4c8.1-0.8,14.4-6.9,15.2-15c0.8-8.1,0.8-16.2-0.1-24.3
	c-0.9-8.1-7.2-14.2-15.3-14.9l-15.5-1.3c-2.9-0.2-4.1-2.3-4.5-3.2c-0.4-0.9-1-3.2,0.8-5.5l9.9-12c5.2-6.3,5.2-15,0.1-21.4
	c-5.1-6.3-10.9-12.1-17.2-17.1c-6.4-5.1-15.2-5-21.4,0.3l-11.9,10c-1.5,1.3-3.6,1.6-5.4,0.9c-0.9-0.4-3-1.5-3.3-4.4l-1.4-15.5
	c-0.8-8.1-6.9-14.4-15-15.2c-8.1-0.8-16.2-0.8-24.3,0.1c-8.1,0.9-14.2,7.2-14.9,15.3l-1.3,15.5c-0.2,2.9-2.3,4.1-3.2,4.5
	c-1.9,0.8-3.9,0.5-5.5-0.8l-12-9.9c-6.3-5.2-15.1-5.2-21.4-0.1c-6.3,5.1-12,10.9-17.1,17.3c-5.1,6.4-5,15.2,0.3,21.4l10,11.9
	c1.9,2.2,1.2,4.5,0.9,5.4c-0.4,0.9-1.5,3-4.4,3.3l-15.5,1.4c-8.1,0.8-14.4,6.9-15.2,15c-0.8,8.1-0.8,16.2,0.1,24.3
	c0.9,8.1,7.2,14.2,15.3,14.9l15.5,1.3c2.9,0.2,4.1,2.3,4.5,3.2c0.8,1.9,0.5,3.9-0.8,5.5l-9.9,12c-5.2,6.3-5.2,15.1-0.1,21.4
	c1.4,1.8,2.9,3.5,4.5,5.2v62.2l-24,5.9c-3.2-5.5-9.2-9.3-16-9.3c-10.2,0-18.5,8.3-18.5,18.5c0,10.2,8.3,18.5,18.5,18.5
	c9.9,0,18-7.9,18.5-17.7l28-6.9c2.3-0.6,3.9-2.6,3.9-5v-56.3c0.8,0.7,1.6,1.3,2.4,2c6.4,5.1,15.1,5,21.4-0.3l11.9-10
	c1.5-1.3,3.6-1.6,5.4-0.9c0.9,0.4,3,1.5,3.3,4.4l1.4,15.5c0.8,8.1,6.9,14.4,15,15.2c2.2,0.2,4.3,0.4,6.5,0.5V351
	c-8.3,2.3-14.5,9.9-14.5,19c0,10.8,8.8,19.7,19.7,19.7s19.7-8.8,19.7-19.7c0-9-6.2-16.7-14.5-19v-79.1c2.5-0.1,4.9-0.3,7.4-0.6
	c8.1-0.9,14.2-7.2,14.9-15.3l1.3-15.5c0.2-2.9,2.3-4.1,3.2-4.5c1.9-0.8,3.9-0.5,5.5,0.8l12,9.9c6.3,5.2,15.1,5.2,21.4,0.1
	c0.6-0.5,1.1-0.9,1.7-1.4v56.3c0,2.4,1.6,4.5,3.9,5l27.9,6.9c0.4,9.8,8.5,17.7,18.5,17.7c10.2,0,18.5-8.3,18.5-18.5
	C396.8,302.7,388.5,294.4,378.3,294.4z M132.4,321.1c-4.5,0-8.1-3.7-8.1-8.1s3.6-8.1,8.1-8.1c4.5,0,8.1,3.6,8.1,8.1
	C140.6,317.4,136.9,321.1,132.4,321.1z M264.7,370c0,5.1-4.2,9.3-9.3,9.3s-9.3-4.2-9.3-9.3c0-5.1,4.2-9.3,9.3-9.3
	S264.7,364.9,264.7,370z M319.7,238.9c-2.4,2-5.8,2-8.2,0l-12-9.9c-4.5-3.8-10.7-4.7-16.1-2.4c-5.4,2.3-9.1,7.3-9.6,13.1l-1.3,15.5
	c-0.3,3.1-2.6,5.5-5.7,5.9c-7.3,0.8-14.7,0.8-22.1,0.1c-3.1-0.3-5.5-2.7-5.8-5.8l-1.4-15.5c-0.5-5.8-4.2-10.9-9.7-13.1
	c-1.9-0.8-3.9-1.2-5.9-1.2c-3.6,0-7.2,1.3-10.1,3.7l-11.9,10c-2.4,2-5.8,2.1-8.2,0.1c-5.8-4.6-11-9.8-15.7-15.5c-2-2.4-2-5.8,0-8.2
	l9.9-12c3.8-4.5,4.7-10.7,2.4-16.1c-2.3-5.4-7.3-9.1-13.1-9.6l-15.5-1.3c-3.1-0.3-5.5-2.6-5.9-5.7c-0.8-7.3-0.8-14.7-0.1-22.1
	c0.3-3.1,2.7-5.5,5.8-5.8l15.5-1.4c5.8-0.5,10.9-4.2,13.1-9.7c2.2-5.4,1.2-11.6-2.5-16.1l-10-11.9c-2-2.4-2.1-5.8-0.1-8.2
	c4.6-5.8,9.8-11,15.5-15.7c2.4-2,5.8-2,8.2,0l12,9.9c4.5,3.8,10.7,4.7,16.1,2.4c5.4-2.3,9.1-7.3,9.6-13.1l1.3-15.5
	c0.3-3.1,2.6-5.5,5.7-5.9c7.3-0.8,14.7-0.8,22.1-0.1c3.1,0.3,5.5,2.7,5.8,5.8l1.4,15.5c0.5,5.8,4.2,10.9,9.7,13.1
	c5.4,2.2,11.6,1.2,16.1-2.5l11.9-10c2.4-2,5.8-2.1,8.2-0.1c5.8,4.6,11,9.8,15.7,15.5c2,2.4,2,5.8,0,8.2l-9.9,12
	c-3.8,4.5-4.7,10.7-2.4,16.1c2.3,5.4,7.3,9.1,13.1,9.6l15.5,1.3c3.1,0.3,5.5,2.6,5.9,5.7c0.8,7.3,0.8,14.7,0.1,22.1
	c-0.3,3.1-2.7,5.5-5.8,5.8l-15.5,1.4c-5.8,0.5-10.9,4.2-13.1,9.7s-1.2,11.6,2.5,16.1l10,11.9c2,2.4,2.1,5.8,0.1,8.2
	C330.7,229,325.4,234.3,319.7,238.9L319.7,238.9z M378.3,321.1c-4.5,0-8.1-3.7-8.1-8.1s3.6-8.1,8.1-8.1c4.5,0,8.1,3.6,8.1,8.1
	C386.5,317.4,382.8,321.1,378.3,321.1z M255.4,103.9c-30.7,0-55.6,24.9-55.6,55.6s24.9,55.6,55.6,55.6s55.6-24.9,55.6-55.6
	S286,103.9,255.4,103.9L255.4,103.9z M255.4,204.8c-24.9,0-45.2-20.3-45.2-45.2s20.3-45.2,45.2-45.2s45.2,20.3,45.2,45.2
	S280.3,204.8,255.4,204.8L255.4,204.8z M277.3,149.8l-27.8-16.1c-3.5-2-7.7-2-11.2,0s-5.6,5.7-5.6,9.7v32.2c0,4.1,2.1,7.7,5.6,9.7
	c1.8,1,3.7,1.5,5.6,1.5s3.9-0.5,5.6-1.5l27.8-16.1c3.5-2,5.6-5.7,5.6-9.7C282.9,155.5,280.8,151.8,277.3,149.8L277.3,149.8z
	 M272.1,160.3l-27.8,16.1c-0.3,0.2-0.6,0.2-0.9,0c-0.3-0.2-0.4-0.4-0.4-0.8v-32.2c0-0.3,0.1-0.6,0.4-0.8c0.1-0.1,0.3-0.1,0.4-0.1
	c0.2,0,0.3,0,0.5,0.1l27.8,16.1c0.3,0.2,0.4,0.4,0.4,0.8C272.5,159.9,272.4,160.1,272.1,160.3L272.1,160.3z M490.1,428.5h-1.4
	l11.2-73.8c6.2-7,10-16.1,10-26.2c0-11.8-5.3-22.5-13.6-29.7l-32.8-126.7c2-3.8,3.2-8.1,3.2-12.6c0-14.7-12-26.7-26.7-26.7
	c-12.9,0-23.8,9.3-26.2,21.5h-28.3c-2.9,0-5.2,2.3-5.2,5.2c0,2.9,2.3,5.2,5.2,5.2h28.3c1.3,6.8,5.3,12.7,10.7,16.5l14,124.5
	c-4.6,6.4-7.3,14.3-7.3,22.7c0,7.1,1.9,13.8,5.3,19.6l-18.3,80.4H414c-10.1,0-18.2,8.2-18.2,18.2c0,10.1,8.2,18.2,18.2,18.2h76
	c10.1,0,18.2-8.2,18.2-18.2C508.3,436.7,500.1,428.5,490.1,428.5z M499.6,328.5c0,16-13,28.9-28.9,28.9c-16,0-28.9-13-28.9-28.9
	s13-28.9,28.9-28.9C486.6,299.6,499.6,312.6,499.6,328.5z M440.1,143.2c9,0,16.3,7.3,16.3,16.3s-7.3,16.3-16.3,16.3
	c-9,0-16.3-7.3-16.3-16.3C423.7,150.5,431,143.2,440.1,143.2z M440.1,186.2c5.6,0,10.9-1.8,15.2-4.8l28.4,110
	c-4.1-1.5-8.5-2.3-13.1-2.3c-8.4,0-16.3,2.7-22.7,7.2l-12.4-110.6C437,186.1,438.5,186.2,440.1,186.2L440.1,186.2z M444.9,358.2
	c6.9,6,15.9,9.6,25.7,9.6c6.3,0,12.2-1.5,17.4-4.1l-9.8,64.8h-49.3L444.9,358.2z M490.1,454.6h-76c-4.3,0-7.9-3.5-7.9-7.9
	c0-4.3,3.5-7.9,7.9-7.9h76c4.3,0,7.9,3.5,7.9,7.9C497.9,451.1,494.4,454.6,490.1,454.6z M470.6,311.3c-9.5,0-17.2,7.7-17.2,17.2
	s7.7,17.2,17.2,17.2c9.5,0,17.2-7.7,17.2-17.2S480.1,311.3,470.6,311.3z M470.6,335.4c-3.8,0-6.8-3.1-6.8-6.8s3.1-6.8,6.8-6.8
	c3.8,0,6.8,3.1,6.8,6.8S474.4,335.4,470.6,335.4z M98,428.5h-4.2l-18.3-80.4c3.3-5.8,5.3-12.5,5.3-19.6c0-8.5-2.7-16.3-7.3-22.7
	l14-124.5c5.4-3.9,9.4-9.8,10.7-16.5h28.3c2.9,0,5.2-2.3,5.2-5.2c0-2.9-2.3-5.2-5.2-5.2H98.1c-2.4-12.2-13.2-21.5-26.2-21.5
	c-14.7,0-26.7,12-26.7,26.7c0,4.6,1.2,8.9,3.2,12.6L15.7,298.8C7.4,306,2.1,316.7,2.1,328.5c0,10,3.8,19.2,10,26.2l11.2,73.8h-1.4
	c-10.1,0-18.2,8.2-18.2,18.2c0,10.1,8.2,18.2,18.2,18.2h76c10.1,0,18.2-8.2,18.2-18.2C116.2,436.7,108,428.5,98,428.5z M71.9,143.2
	c9,0,16.3,7.3,16.3,16.3s-7.3,16.3-16.3,16.3c-9,0-16.3-7.3-16.3-16.3C55.6,150.5,62.9,143.2,71.9,143.2z M56.7,181.4
	c4.3,3,9.6,4.8,15.2,4.8c1.5,0,3.1-0.1,4.5-0.4L64.1,296.4c-6.4-4.5-14.2-7.2-22.7-7.2c-4.6,0-9,0.8-13.1,2.3L56.7,181.4z
	 M41.4,299.6c16,0,28.9,13,28.9,28.9s-13,28.9-28.9,28.9s-28.9-13-28.9-28.9S25.4,299.6,41.4,299.6z M24,363.7
	c5.3,2.6,11.2,4.1,17.4,4.1c9.8,0,18.8-3.6,25.7-9.6l16,70.3H33.8L24,363.7z M98,454.6h-76c-4.3,0-7.9-3.5-7.9-7.9
	c0-4.3,3.5-7.9,7.9-7.9h76c4.3,0,7.9,3.5,7.9,7.9C105.8,451.1,102.3,454.6,98,454.6z M41.4,345.7c9.5,0,17.2-7.7,17.2-17.2
	s-7.7-17.2-17.2-17.2s-17.2,7.7-17.2,17.2S31.9,345.7,41.4,345.7z M41.4,321.7c3.8,0,6.8,3.1,6.8,6.8s-3.1,6.8-6.8,6.8
	s-6.8-3.1-6.8-6.8S37.6,321.7,41.4,321.7z M65.3,159.5c0-3.7,3-6.7,6.7-6.7s6.7,3,6.7,6.7s-3,6.7-6.7,6.7S65.3,163.2,65.3,159.5z
	 M433.4,159.5c0-3.7,3-6.7,6.7-6.7s6.7,3,6.7,6.7s-3,6.7-6.7,6.7S433.4,163.2,433.4,159.5z"/>
</svg>
